<svg xmlns="http://www.w3.org/2000/svg" xmlns:xlink="http://www.w3.org/1999/xlink" width="840" height="494.2"><rect width="840" height="494.2" rx="5" ry="5" class="a"/><svg y="0%" x="0%"><circle cx="20" cy="20" r="6" fill="#ff5f58"/><circle cx="40" cy="20" r="6" fill="#ffbd2e"/><circle cx="60" cy="20" r="6" fill="#18c132"/></svg><svg height="434.2" viewBox="0 0 80 43.42" width="800" x="15" xmlns="http://www.w3.org/2000/svg" xmlns:xlink="http://www.w3.org/1999/xlink" y="50"><style>.a{fill:#282d35}.h{font-weight:700}.h,.i,.j,.k{fill:#b9c0cb;white-space:pre}.j,.k{fill:#dbab79}.k{fill:#66c2cd;font-weight:700}</style><g font-family="Monaco,Consolas,Menlo,'Bitstream Vera Sans Mono','Powerline Symbols',monospace" font-size="1.67"><defs><symbol id="a"><path fill="transparent" d="M0 0h80v21H0z"/></symbol><symbol id="b"><path fill="#6f7683" d="M0 0h1.102v2.171H0z"/></symbol></defs><path class="a" d="M0 0h80v43.42H0z"/><svg width="80"><svg><use xlink:href="#a"/><use xlink:href="#b" x="26.996" y="39.053"/><text y="1.67" class="h">[root@git-demo]</text><text x="16.032" y="1.67" class="h">/git-demo:</text><text x="27.054" y="1.67" class="i">git</text><text x="31.062" y="1.67" class="i">pull</text><text y="3.841" class="i">remote:</text><text x="8.016" y="3.841" class="i">Enumerating</text><text x="20.04" y="3.841" class="i">objects:</text><text x="29.058" y="3.841" class="i">9,</text><text x="32.064" y="3.841" class="i">done.</text><text y="6.012" class="i">remote:</text><text x="8.016" y="6.012" class="i">Counting</text><text x="17.034" y="6.012" class="i">objects:</text><text x="26.052" y="6.012" class="i">100%</text><text x="31.062" y="6.012" class="i">(9/9),</text><text x="38.076" y="6.012" class="i">done.</text><text y="8.183" class="i">remote:</text><text x="8.016" y="8.183" class="i">Compressing</text><text x="20.04" y="8.183" class="i">objects:</text><text x="29.058" y="8.183" class="i">100%</text><text x="34.068" y="8.183" class="i">(7/7),</text><text x="41.082" y="8.183" class="i">done.</text><text y="10.354" class="i">remote:</text><text x="8.016" y="10.354" class="i">Total</text><text x="14.028" y="10.354" class="i">9</text><text x="16.032" y="10.354" class="i">(delta</text><text x="23.046" y="10.354" class="i">0),</text><text x="27.054" y="10.354" class="i">reused</text><text x="34.068" y="10.354" class="i">9</text><text x="36.072" y="10.354" class="i">(delta</text><text x="43.086" y="10.354" class="i">0),</text><text x="47.094" y="10.354" class="i">pack-reused</text><text x="59.118" y="10.354" class="i">0</text><text y="12.525" class="i">Unpacking</text><text x="10.02" y="12.525" class="i">objects:</text><text x="19.038" y="12.525" class="i">100%</text><text x="24.048" y="12.525" class="i">(9/9),</text><text x="31.062" y="12.525" class="i">1.08</text><text x="36.072" y="12.525" class="i">KiB</text><text x="40.08" y="12.525" class="i">|</text><text x="42.084" y="12.525" class="i">57.00</text><text x="48.096" y="12.525" class="i">KiB/s,</text><text x="55.11" y="12.525" class="i">done.</text><text y="14.696" class="i">From</text><text x="5.01" y="14.696" class="i">github.com:buck-ross/git-demo</text><text x="1.002" y="16.867" class="i">*</text><text x="3.006" y="16.867" class="i">[new</text><text x="8.016" y="16.867" class="i">branch]</text><text x="21.042" y="16.867" class="i">master</text><text x="32.064" y="16.867" class="i">-&gt;</text><text x="35.07" y="16.867" class="i">origin/master</text><text y="19.038" class="h">[root@git-demo]</text><text x="16.032" y="19.038" class="h">/git-demo:</text><text x="27.054" y="19.038" class="i">git</text><text x="31.062" y="19.038" class="i">status</text><text y="21.209" class="i">On</text><text x="3.006" y="21.209" class="i">branch</text><text x="10.02" y="21.209" class="i">master</text><text y="23.38" class="i">Your</text><text x="5.01" y="23.38" class="i">branch</text><text x="12.024" y="23.38" class="i">is</text><text x="15.03" y="23.38" class="i">up</text><text x="18.036" y="23.38" class="i">to</text><text x="21.042" y="23.38" class="i">date</text><text x="26.052" y="23.38" class="i">with</text><text x="31.062" y="23.38" class="i">&apos;origin/master&apos;.</text><text y="27.722" class="i">nothing</text><text x="8.016" y="27.722" class="i">to</text><text x="11.022" y="27.722" class="i">commit,</text><text x="19.038" y="27.722" class="i">working</text><text x="27.054" y="27.722" class="i">tree</text><text x="32.064" y="27.722" class="i">clean</text><text y="29.893" class="h">[root@git-demo]</text><text x="16.032" y="29.893" class="h">/git-demo:</text><text x="27.054" y="29.893" class="i">git</text><text x="31.062" y="29.893" class="i">log</text><text x="35.07" y="29.893" class="i">--oneline</text><text y="32.064" class="j">1494dfc</text><text x="8.016" y="32.064" class="j">(</text><text x="9.018" y="32.064" class="k">HEAD</text><text x="14.028" y="32.064" class="k">-&gt;</text><text x="17.034" y="32.064" style="white-space:pre" fill="#a8cc8c" font-weight="700">master</text><text x="23.046" y="32.064" class="j">,</text><text x="25.05" y="32.064" style="white-space:pre" fill="#e88388" font-weight="700">origin/master</text><text x="38.076" y="32.064" class="j">)</text><text x="40.08" y="32.064" class="i">This</text><text x="45.09" y="32.064" class="i">is</text><text x="48.096" y="32.064" class="i">the</text><text x="52.104" y="32.064" class="i">third</text><text x="58.116" y="32.064" class="i">commit</text><text x="65.13" y="32.064" class="i">on</text><text x="68.136" y="32.064" class="i">our</text><text x="72.144" y="32.064" class="i">master</text><text x="79.158" y="32.064" class="i">b</text><text y="34.235" class="i">ranch</text><text y="36.406" class="j">7ff868e</text><text x="8.016" y="36.406" class="i">This</text><text x="13.026" y="36.406" class="i">is</text><text x="16.032" y="36.406" class="i">our</text><text x="20.04" y="36.406" class="i">second</text><text x="27.054" y="36.406" class="i">commit</text><text y="38.577" class="j">e55312e</text><text x="8.016" y="38.577" class="i">This</text><text x="13.026" y="38.577" class="i">is</text><text x="16.032" y="38.577" class="i">our</text><text x="20.04" y="38.577" class="i">first</text><text x="26.052" y="38.577" class="i">commit</text><text y="40.748" class="h">[root@git-demo]</text><text x="16.032" y="40.748" class="h">/git-demo:</text></svg></svg></g></svg></svg>