<svg xmlns="http://www.w3.org/2000/svg" xmlns:xlink="http://www.w3.org/1999/xlink" width="840" height="298.81"><rect width="840" height="298.81" rx="5" ry="5" class="a"/><svg y="0%" x="0%"><circle cx="20" cy="20" r="6" fill="#ff5f58"/><circle cx="40" cy="20" r="6" fill="#ffbd2e"/><circle cx="60" cy="20" r="6" fill="#18c132"/></svg><svg height="238.81" viewBox="0 0 80 23.881" width="800" x="15" xmlns="http://www.w3.org/2000/svg" xmlns:xlink="http://www.w3.org/1999/xlink" y="50"><style>.a{fill:#282d35}.h{font-weight:700}.h,.i{fill:#b9c0cb;white-space:pre}</style><g font-family="Monaco,Consolas,Menlo,'Bitstream Vera Sans Mono','Powerline Symbols',monospace" font-size="1.67"><defs><symbol id="a"><path fill="transparent" d="M0 0h80v12H0z"/></symbol><symbol id="b"><path fill="#6f7683" d="M0 0h1.102v2.171H0z"/></symbol></defs><path class="a" d="M0 0h80v23.881H0z"/><svg width="80"><svg><use xlink:href="#a"/><use xlink:href="#b" x="27.996" y="19.514"/><text y="1.67" class="h">[root@git-demo]</text><text x="16.032" y="1.67" class="h">/myProject:</text><text x="28.056" y="1.67" class="i">git</text><text x="32.064" y="1.67" class="i">show</text><text x="37.074" y="1.67" class="i">HEAD:first.py</text><text y="3.841" class="i">import</text><text x="7.014" y="3.841" class="i">random</text><text y="8.183" class="i">def</text><text x="4.008" y="8.183" class="i">main():</text><text x="8.016" y="10.354" class="i">myNum</text><text x="14.028" y="10.354" class="i">=</text><text x="16.032" y="10.354" class="i">random.randint(0,</text><text x="34.068" y="10.354" class="i">9)</text><text x="8.016" y="12.525" class="i">print(&apos;Here</text><text x="20.04" y="12.525" class="i">is</text><text x="23.046" y="12.525" class="i">a</text><text x="25.05" y="12.525" class="i">random</text><text x="32.064" y="12.525" class="i">number:</text><text x="40.08" y="12.525" class="i">{0}&apos;.format(myNum))</text><text y="16.867" class="i">main()</text><text y="21.209" class="h">[root@git-demo]</text><text x="16.032" y="21.209" class="h">/myProject:</text></svg></svg></g></svg></svg>