<svg xmlns="http://www.w3.org/2000/svg" xmlns:xlink="http://www.w3.org/1999/xlink" width="840" height="320.52"><rect width="840" height="320.52" rx="5" ry="5" class="a"/><svg y="0%" x="0%"><circle cx="20" cy="20" r="6" fill="#ff5f58"/><circle cx="40" cy="20" r="6" fill="#ffbd2e"/><circle cx="60" cy="20" r="6" fill="#18c132"/></svg><svg height="260.52" viewBox="0 0 80 26.052" width="800" x="15" xmlns="http://www.w3.org/2000/svg" xmlns:xlink="http://www.w3.org/1999/xlink" y="50"><style>.a{fill:#282d35}.h{font-weight:700}.h,.i,.j{fill:#b9c0cb;white-space:pre}.j{fill:#a8cc8c}</style><g font-family="Monaco,Consolas,Menlo,'Bitstream Vera Sans Mono','Powerline Symbols',monospace" font-size="1.67"><defs><symbol id="a"><path fill="transparent" d="M0 0h80v13H0z"/></symbol><symbol id="b"><path fill="#6f7683" d="M0 0h1.102v2.171H0z"/></symbol></defs><path class="a" d="M0 0h80v26.052H0z"/><svg width="80"><svg><use xlink:href="#a"/><use xlink:href="#b" x="27.996" y="21.685"/><text y="1.67" class="h">[root@git-demo]</text><text x="16.032" y="1.67" class="h">/myProject:</text><text x="28.056" y="1.67" class="i">git</text><text x="32.064" y="1.67" class="i">add</text><text x="36.072" y="1.67" class="i">first.py</text><text y="3.841" class="h">[root@git-demo]</text><text x="16.032" y="3.841" class="h">/myProject:</text><text x="28.056" y="3.841" class="i">git</text><text x="32.064" y="3.841" class="i">status</text><text y="6.012" class="i">On</text><text x="3.006" y="6.012" class="i">branch</text><text x="10.02" y="6.012" class="i">master</text><text y="10.354" class="i">No</text><text x="3.006" y="10.354" class="i">commits</text><text x="11.022" y="10.354" class="i">yet</text><text y="14.696" class="i">Changes</text><text x="8.016" y="14.696" class="i">to</text><text x="11.022" y="14.696" class="i">be</text><text x="14.028" y="14.696" class="i">committed:</text><text x="2.004" y="16.867" class="i">(use</text><text x="7.014" y="16.867" class="i">&quot;git</text><text x="12.024" y="16.867" class="i">rm</text><text x="15.03" y="16.867" class="i">--cached</text><text x="24.048" y="16.867" class="i">&lt;file&gt;...&quot;</text><text x="35.07" y="16.867" class="i">to</text><text x="38.076" y="16.867" class="i">unstage)</text><text x="8.016" y="19.038" class="j">new</text><text x="12.024" y="19.038" class="j">file:</text><text x="20.04" y="19.038" class="j">first.py</text><text y="23.38" class="h">[root@git-demo]</text><text x="16.032" y="23.38" class="h">/myProject:</text></svg></svg></g></svg></svg>