<svg xmlns="http://www.w3.org/2000/svg" xmlns:xlink="http://www.w3.org/1999/xlink" width="840" height="450.78"><rect width="840" height="450.78" rx="5" ry="5" class="a"/><svg y="0%" x="0%"><circle cx="20" cy="20" r="6" fill="#ff5f58"/><circle cx="40" cy="20" r="6" fill="#ffbd2e"/><circle cx="60" cy="20" r="6" fill="#18c132"/></svg><svg height="390.78" viewBox="0 0 80 39.078" width="800" x="15" xmlns="http://www.w3.org/2000/svg" xmlns:xlink="http://www.w3.org/1999/xlink" y="50"><style>.a{fill:#282d35}.f,.i{fill:#b9c0cb;white-space:pre}.i{font-weight:700}.j,.k,.l,.m{fill:#dbab79;white-space:pre}.k,.l,.m{fill:#66c2cd;font-weight:700}.l,.m{fill:#a8cc8c}.m{fill:#e88388}</style><g font-family="Monaco,Consolas,Menlo,'Bitstream Vera Sans Mono','Powerline Symbols',monospace" font-size="1.67"><defs><symbol id="1"><text y="1.67" class="f">remote:</text></symbol><symbol id="a"><path fill="transparent" d="M0 0h80v19H0z"/></symbol><symbol id="b"><path fill="#6f7683" d="M0 0h1.102v2.171H0z"/></symbol></defs><path class="a" d="M0 0h80v39.078H0z"/><svg width="80"><svg><use xlink:href="#a"/><use xlink:href="#b" x="25.996" y="34.711"/><text y="1.67" class="i">[bob@git-demo]</text><text x="15.03" y="1.67" class="i">/myProject:</text><text x="27.054" y="1.67" class="f">cd</text><text x="30.06" y="1.67" class="f">../git-demo</text><text y="3.841" class="i">[bob@git-demo]</text><text x="15.03" y="3.841" class="i">/git-demo:</text><text x="26.052" y="3.841" class="f">git</text><text x="30.06" y="3.841" class="f">branch</text><text x="37.074" y="3.841" class="f">fibonacci</text><text y="6.012" class="i">[bob@git-demo]</text><text x="15.03" y="6.012" class="i">/git-demo:</text><text x="26.052" y="6.012" class="f">git</text><text x="30.06" y="6.012" class="f">checkout</text><text x="39.078" y="6.012" class="f">fibonacci</text><text y="8.183" class="f">Switched</text><text x="9.018" y="8.183" class="f">to</text><text x="12.024" y="8.183" class="f">branch</text><text x="19.038" y="8.183" class="f">&apos;fibonacci&apos;</text><text y="10.354" class="i">[bob@git-demo]</text><text x="15.03" y="10.354" class="i">/git-demo:</text><text x="26.052" y="10.354" class="f">git</text><text x="30.06" y="10.354" class="f">push</text><text x="35.07" y="10.354" class="f">--set-upstream</text><text x="50.1" y="10.354" class="f">origin</text><text x="57.114" y="10.354" class="f">fibonacci</text><text y="12.525" class="f">Total</text><text x="6.012" y="12.525" class="f">0</text><text x="8.016" y="12.525" class="f">(delta</text><text x="15.03" y="12.525" class="f">0),</text><text x="19.038" y="12.525" class="f">reused</text><text x="26.052" y="12.525" class="f">0</text><text x="28.056" y="12.525" class="f">(delta</text><text x="35.07" y="12.525" class="f">0),</text><text x="39.078" y="12.525" class="f">pack-reused</text><text x="51.102" y="12.525" class="f">0</text><use xlink:href="#1" y="13.026"/><text y="16.867" class="f">remote:</text><text x="8.016" y="16.867" class="f">Create</text><text x="15.03" y="16.867" class="f">a</text><text x="17.034" y="16.867" class="f">pull</text><text x="22.044" y="16.867" class="f">request</text><text x="30.06" y="16.867" class="f">for</text><text x="34.068" y="16.867" class="f">&apos;fibonacci&apos;</text><text x="46.092" y="16.867" class="f">on</text><text x="49.098" y="16.867" class="f">GitHub</text><text x="56.112" y="16.867" class="f">by</text><text x="59.118" y="16.867" class="f">visiting:</text><text y="19.038" class="f">remote:</text><text x="13.026" y="19.038" class="f">https://github.com/buck-ross/git-demo/pull/new/fibonacci</text><use xlink:href="#1" y="19.539"/><text y="23.38" class="f">To</text><text x="3.006" y="23.38" class="f">github.com:buck-ross/git-demo.git</text><text x="1.002" y="25.551" class="f">*</text><text x="3.006" y="25.551" class="f">[new</text><text x="8.016" y="25.551" class="f">branch]</text><text x="21.042" y="25.551" class="f">fibonacci</text><text x="31.062" y="25.551" class="f">-&gt;</text><text x="34.068" y="25.551" class="f">fibonacci</text><text y="27.722" class="f">Branch</text><text x="7.014" y="27.722" class="f">&apos;fibonacci&apos;</text><text x="19.038" y="27.722" class="f">set</text><text x="23.046" y="27.722" class="f">up</text><text x="26.052" y="27.722" class="f">to</text><text x="29.058" y="27.722" class="f">track</text><text x="35.07" y="27.722" class="f">remote</text><text x="42.084" y="27.722" class="f">branch</text><text x="49.098" y="27.722" class="f">&apos;fibonacci&apos;</text><text x="61.122" y="27.722" class="f">from</text><text x="66.132" y="27.722" class="f">&apos;origin&apos;.</text><text y="29.893" class="i">[bob@git-demo]</text><text x="15.03" y="29.893" class="i">/git-demo:</text><text x="26.052" y="29.893" class="f">git</text><text x="30.06" y="29.893" class="f">log</text><text x="34.068" y="29.893" class="f">-1</text><text x="37.074" y="29.893" class="f">--oneline</text><text y="32.064" class="j">1494dfc</text><text x="8.016" y="32.064" class="j">(</text><text x="9.018" y="32.064" class="k">HEAD</text><text x="14.028" y="32.064" class="k">-&gt;</text><text x="17.034" y="32.064" class="l">fibonacci</text><text x="26.052" y="32.064" class="j">,</text><text x="28.056" y="32.064" class="m">origin/master</text><text x="41.082" y="32.064" class="j">,</text><text x="43.086" y="32.064" class="m">origin/fibonacci</text><text x="59.118" y="32.064" class="j">,</text><text x="61.122" y="32.064" class="l">master</text><text x="67.134" y="32.064" class="j">)</text><text x="69.138" y="32.064" class="f">This</text><text x="74.148" y="32.064" class="f">is</text><text x="77.154" y="32.064" class="f">the</text><text x="1.002" y="34.235" class="f">third</text><text x="7.014" y="34.235" class="f">commit</text><text x="14.028" y="34.235" class="f">on</text><text x="17.034" y="34.235" class="f">our</text><text x="21.042" y="34.235" class="f">master</text><text x="28.056" y="34.235" class="f">branch</text><text y="36.406" class="i">[bob@git-demo]</text><text x="15.03" y="36.406" class="i">/git-demo:</text></svg></svg></g></svg></svg>