<svg xmlns="http://www.w3.org/2000/svg" xmlns:xlink="http://www.w3.org/1999/xlink" width="840" height="385.65"><rect width="840" height="385.65" rx="5" ry="5" class="a"/><svg y="0%" x="0%"><circle cx="20" cy="20" r="6" fill="#ff5f58"/><circle cx="40" cy="20" r="6" fill="#ffbd2e"/><circle cx="60" cy="20" r="6" fill="#18c132"/></svg><svg height="325.65" viewBox="0 0 80 32.565" width="800" x="15" xmlns="http://www.w3.org/2000/svg" xmlns:xlink="http://www.w3.org/1999/xlink" y="50"><style>.a{fill:#282d35}.f{font-weight:700}.f,.g,.h,.k,.l,.m{fill:#b9c0cb;white-space:pre}.h,.k,.l,.m{fill:#dbab79}.k,.l,.m{fill:#66c2cd;font-weight:700}.l,.m{fill:#a8cc8c}.m{fill:#e88388}</style><g font-family="Monaco,Consolas,Menlo,'Bitstream Vera Sans Mono','Powerline Symbols',monospace" font-size="1.67"><defs><symbol id="1"><text y="1.67" class="f">[alice@git-demo]</text><text x="17.034" y="1.67" class="f">/myProject:</text><text x="29.058" y="1.67" class="g">git</text><text x="33.066" y="1.67" class="g">log</text><text x="37.074" y="1.67" class="g">--oneline</text></symbol><symbol id="2"><text y="1.67" class="g">n</text><text x="2.004" y="1.67" class="g">our</text><text x="6.012" y="1.67" class="g">master</text><text x="13.026" y="1.67" class="g">branch</text></symbol><symbol id="3"><text y="1.67" class="h">7ff868e</text><text x="8.016" y="1.67" class="g">This</text><text x="13.026" y="1.67" class="g">is</text><text x="16.032" y="1.67" class="g">our</text><text x="20.04" y="1.67" class="g">second</text><text x="27.054" y="1.67" class="g">commit</text></symbol><symbol id="4"><text y="1.67" class="h">e55312e</text><text x="8.016" y="1.67" class="g">This</text><text x="13.026" y="1.67" class="g">is</text><text x="16.032" y="1.67" class="g">our</text><text x="20.04" y="1.67" class="g">first</text><text x="26.052" y="1.67" class="g">commit</text></symbol><symbol id="a"><path fill="transparent" d="M0 0h80v16H0z"/></symbol><symbol id="b"><path fill="#6f7683" d="M0 0h1.102v2.171H0z"/></symbol></defs><path class="a" d="M0 0h80v32.565H0z"/><svg width="80"><svg><use xlink:href="#a"/><use xlink:href="#b" x="28.996" y="28.198"/><text y="1.67" class="f">[alice@git-demo]</text><text x="17.034" y="1.67" class="f">/myProject:</text><text x="29.058" y="1.67" class="g">git</text><text x="33.066" y="1.67" class="g">branch</text><text x="40.08" y="1.67" class="g">primeChecker</text><use xlink:href="#1" y="2.171"/><text y="6.012" class="h">1494dfc</text><text x="8.016" y="6.012" class="h">(</text><text x="9.018" y="6.012" class="k">HEAD</text><text x="14.028" y="6.012" class="k">-&gt;</text><text x="17.034" y="6.012" class="l">master</text><text x="23.046" y="6.012" class="h">,</text><text x="25.05" y="6.012" class="m">origin/master</text><text x="38.076" y="6.012" class="h">,</text><text x="40.08" y="6.012" class="l">primeChecker</text><text x="52.104" y="6.012" class="h">)</text><text x="54.108" y="6.012" class="g">This</text><text x="59.118" y="6.012" class="g">is</text><text x="62.124" y="6.012" class="g">the</text><text x="66.132" y="6.012" class="g">third</text><text x="72.144" y="6.012" class="g">commit</text><text x="79.158" y="6.012" class="g">o</text><use xlink:href="#2" y="6.513"/><use xlink:href="#3" y="8.684"/><use xlink:href="#4" y="10.855"/><text y="14.696" class="f">[alice@git-demo]</text><text x="17.034" y="14.696" class="f">/myProject:</text><text x="29.058" y="14.696" class="g">git</text><text x="33.066" y="14.696" class="g">checkout</text><text x="42.084" y="14.696" class="g">primeChecker</text><text y="16.867" class="g">Switched</text><text x="9.018" y="16.867" class="g">to</text><text x="12.024" y="16.867" class="g">branch</text><text x="19.038" y="16.867" class="g">&apos;primeChecker&apos;</text><use xlink:href="#1" y="17.368"/><text y="21.209" class="h">1494dfc</text><text x="8.016" y="21.209" class="h">(</text><text x="9.018" y="21.209" class="k">HEAD</text><text x="14.028" y="21.209" class="k">-&gt;</text><text x="17.034" y="21.209" class="l">primeChecker</text><text x="29.058" y="21.209" class="h">,</text><text x="31.062" y="21.209" class="m">origin/master</text><text x="44.088" y="21.209" class="h">,</text><text x="46.092" y="21.209" class="l">master</text><text x="52.104" y="21.209" class="h">)</text><text x="54.108" y="21.209" class="g">This</text><text x="59.118" y="21.209" class="g">is</text><text x="62.124" y="21.209" class="g">the</text><text x="66.132" y="21.209" class="g">third</text><text x="72.144" y="21.209" class="g">commit</text><text x="79.158" y="21.209" class="g">o</text><use xlink:href="#2" y="21.71"/><use xlink:href="#3" y="23.881"/><use xlink:href="#4" y="26.052"/><text y="29.893" class="f">[alice@git-demo]</text><text x="17.034" y="29.893" class="f">/myProject:</text></svg></svg></g></svg></svg>