<svg xmlns="http://www.w3.org/2000/svg" xmlns:xlink="http://www.w3.org/1999/xlink" width="840" height="211.97"><rect width="840" height="211.97" rx="5" ry="5" class="a"/><svg y="0%" x="0%"><circle cx="20" cy="20" r="6" fill="#ff5f58"/><circle cx="40" cy="20" r="6" fill="#ffbd2e"/><circle cx="60" cy="20" r="6" fill="#18c132"/></svg><svg height="151.97" viewBox="0 0 80 15.197" width="800" x="15" xmlns="http://www.w3.org/2000/svg" xmlns:xlink="http://www.w3.org/1999/xlink" y="50"><style>.a{fill:#282d35}.h{font-weight:700}.h,.i{fill:#b9c0cb;white-space:pre}</style><g font-family="Monaco,Consolas,Menlo,'Bitstream Vera Sans Mono','Powerline Symbols',monospace" font-size="1.67"><defs><symbol id="a"><path fill="transparent" d="M0 0h80v8H0z"/></symbol><symbol id="b"><path fill="#6f7683" d="M0 0h1.102v2.171H0z"/></symbol></defs><path class="a" d="M0 0h80v15.197H0z"/><svg width="80"><svg><use xlink:href="#a"/><use xlink:href="#b" x="28.996" y="10.83"/><text y="1.67" class="h">[alice@git-demo]</text><text x="17.034" y="1.67" class="h">/myProject:</text><text x="29.058" y="1.67" class="i">git</text><text x="33.066" y="1.67" class="i">add</text><text x="37.074" y="1.67" class="i">primeChecker.py</text><text y="3.841" class="h">[alice@git-demo]</text><text x="17.034" y="3.841" class="h">/myProject:</text><text x="29.058" y="3.841" class="i">git</text><text x="33.066" y="3.841" class="i">commit</text><text x="40.08" y="3.841" class="i">-m</text><text x="43.086" y="3.841" class="i">&apos;Added</text><text x="50.1" y="3.841" class="i">Prime</text><text x="56.112" y="3.841" class="i">Checker</text><text x="64.128" y="3.841" class="i">Algorithm&apos;</text><text y="6.012" class="i">[primeChecker</text><text x="14.028" y="6.012" class="i">efe5426]</text><text x="23.046" y="6.012" class="i">Added</text><text x="29.058" y="6.012" class="i">Prime</text><text x="35.07" y="6.012" class="i">Checker</text><text x="43.086" y="6.012" class="i">Algorithm</text><text x="1.002" y="8.183" class="i">1</text><text x="3.006" y="8.183" class="i">file</text><text x="8.016" y="8.183" class="i">changed,</text><text x="17.034" y="8.183" class="i">8</text><text x="19.038" y="8.183" class="i">insertions(+)</text><text x="1.002" y="10.354" class="i">create</text><text x="8.016" y="10.354" class="i">mode</text><text x="13.026" y="10.354" class="i">100644</text><text x="20.04" y="10.354" class="i">primeChecker.py</text><text y="12.525" class="h">[alice@git-demo]</text><text x="17.034" y="12.525" class="h">/myProject:</text></svg></svg></g></svg></svg>