<svg xmlns="http://www.w3.org/2000/svg" xmlns:xlink="http://www.w3.org/1999/xlink" width="840" height="407.36"><rect width="840" height="407.36" rx="5" ry="5" class="a"/><svg y="0%" x="0%"><circle cx="20" cy="20" r="6" fill="#ff5f58"/><circle cx="40" cy="20" r="6" fill="#ffbd2e"/><circle cx="60" cy="20" r="6" fill="#18c132"/></svg><svg height="347.36" viewBox="0 0 80 34.736" width="800" x="15" xmlns="http://www.w3.org/2000/svg" xmlns:xlink="http://www.w3.org/1999/xlink" y="50"><style>.a{fill:#282d35}.h{font-weight:700}.h,.i{fill:#b9c0cb;white-space:pre}</style><g font-family="Monaco,Consolas,Menlo,'Bitstream Vera Sans Mono','Powerline Symbols',monospace" font-size="1.67"><defs><symbol id="a"><path fill="transparent" d="M0 0h80v17H0z"/></symbol><symbol id="b"><path fill="#6f7683" d="M0 0h1.102v2.171H0z"/></symbol></defs><path class="a" d="M0 0h80v34.736H0z"/><svg width="80"><svg><use xlink:href="#a"/><use xlink:href="#b" x="25.996" y="30.369"/><text y="1.67" class="h">[bob@git-demo]</text><text x="15.03" y="1.67" class="h">/git-demo:</text><text x="26.052" y="1.67" class="i">git</text><text x="30.06" y="1.67" class="i">add</text><text x="34.068" y="1.67" class="i">fibonacci.py</text><text x="47.094" y="1.67" class="i">first.py</text><text y="3.841" class="h">[bob@git-demo]</text><text x="15.03" y="3.841" class="h">/git-demo:</text><text x="26.052" y="3.841" class="i">git</text><text x="30.06" y="3.841" class="i">commit</text><text x="37.074" y="3.841" class="i">-m</text><text x="40.08" y="3.841" class="i">&apos;Added</text><text x="47.094" y="3.841" class="i">Fibonacci</text><text x="57.114" y="3.841" class="i">Algorithm&apos;</text><text y="6.012" class="i">[fibonacci</text><text x="11.022" y="6.012" class="i">11f979d]</text><text x="20.04" y="6.012" class="i">Added</text><text x="26.052" y="6.012" class="i">Fibonacci</text><text x="36.072" y="6.012" class="i">Algorithm</text><text x="1.002" y="8.183" class="i">2</text><text x="3.006" y="8.183" class="i">files</text><text x="9.018" y="8.183" class="i">changed,</text><text x="18.036" y="8.183" class="i">13</text><text x="21.042" y="8.183" class="i">insertions(+),</text><text x="36.072" y="8.183" class="i">1</text><text x="38.076" y="8.183" class="i">deletion(-)</text><text x="1.002" y="10.354" class="i">create</text><text x="8.016" y="10.354" class="i">mode</text><text x="13.026" y="10.354" class="i">100644</text><text x="20.04" y="10.354" class="i">fibonacci.py</text><text y="12.525" class="h">[bob@git-demo]</text><text x="15.03" y="12.525" class="h">/git-demo:</text><text x="26.052" y="12.525" class="i">git</text><text x="30.06" y="12.525" class="i">push</text><text y="14.696" class="i">Enumerating</text><text x="12.024" y="14.696" class="i">objects:</text><text x="21.042" y="14.696" class="i">6,</text><text x="24.048" y="14.696" class="i">done.</text><text y="16.867" class="i">Counting</text><text x="9.018" y="16.867" class="i">objects:</text><text x="18.036" y="16.867" class="i">100%</text><text x="23.046" y="16.867" class="i">(6/6),</text><text x="30.06" y="16.867" class="i">done.</text><text y="19.038" class="i">Delta</text><text x="6.012" y="19.038" class="i">compression</text><text x="18.036" y="19.038" class="i">using</text><text x="24.048" y="19.038" class="i">up</text><text x="27.054" y="19.038" class="i">to</text><text x="30.06" y="19.038" class="i">2</text><text x="32.064" y="19.038" class="i">threads</text><text y="21.209" class="i">Compressing</text><text x="12.024" y="21.209" class="i">objects:</text><text x="21.042" y="21.209" class="i">100%</text><text x="26.052" y="21.209" class="i">(4/4),</text><text x="33.066" y="21.209" class="i">done.</text><text y="23.38" class="i">Writing</text><text x="8.016" y="23.38" class="i">objects:</text><text x="17.034" y="23.38" class="i">100%</text><text x="22.044" y="23.38" class="i">(4/4),</text><text x="29.058" y="23.38" class="i">589</text><text x="33.066" y="23.38" class="i">bytes</text><text x="39.078" y="23.38" class="i">|</text><text x="41.082" y="23.38" class="i">58.00</text><text x="47.094" y="23.38" class="i">KiB/s,</text><text x="54.108" y="23.38" class="i">done.</text><text y="25.551" class="i">Total</text><text x="6.012" y="25.551" class="i">4</text><text x="8.016" y="25.551" class="i">(delta</text><text x="15.03" y="25.551" class="i">0),</text><text x="19.038" y="25.551" class="i">reused</text><text x="26.052" y="25.551" class="i">0</text><text x="28.056" y="25.551" class="i">(delta</text><text x="35.07" y="25.551" class="i">0),</text><text x="39.078" y="25.551" class="i">pack-reused</text><text x="51.102" y="25.551" class="i">0</text><text y="27.722" class="i">To</text><text x="3.006" y="27.722" class="i">github.com:buck-ross/git-demo.git</text><text x="3.006" y="29.893" class="i">1494dfc..11f979d</text><text x="21.042" y="29.893" class="i">fibonacci</text><text x="31.062" y="29.893" class="i">-&gt;</text><text x="34.068" y="29.893" class="i">fibonacci</text><text y="32.064" class="h">[bob@git-demo]</text><text x="15.03" y="32.064" class="h">/git-demo:</text></svg></svg></g></svg></svg>