<svg xmlns="http://www.w3.org/2000/svg" xmlns:xlink="http://www.w3.org/1999/xlink" width="840" height="233.68"><rect width="840" height="233.68" rx="5" ry="5" class="a"/><svg y="0%" x="0%"><circle cx="20" cy="20" r="6" fill="#ff5f58"/><circle cx="40" cy="20" r="6" fill="#ffbd2e"/><circle cx="60" cy="20" r="6" fill="#18c132"/></svg><svg height="173.68" viewBox="0 0 80 17.368" width="800" x="15" xmlns="http://www.w3.org/2000/svg" xmlns:xlink="http://www.w3.org/1999/xlink" y="50"><style>.a{fill:#282d35}.h{font-weight:700}.h,.i{fill:#b9c0cb;white-space:pre}</style><g font-family="Monaco,Consolas,Menlo,'Bitstream Vera Sans Mono','Powerline Symbols',monospace" font-size="1.67"><defs><symbol id="a"><path fill="transparent" d="M0 0h80v9H0z"/></symbol><symbol id="b"><path fill="#6f7683" d="M0 0h1.102v2.171H0z"/></symbol></defs><path class="a" d="M0 0h80v17.368H0z"/><svg width="80"><svg><use xlink:href="#a"/><use xlink:href="#b" x="26.996" y="13.001"/><text y="1.67" class="h">[root@git-demo]</text><text x="16.032" y="1.67" class="h">/:</text><text x="19.038" y="1.67" class="i">git</text><text x="23.046" y="1.67" class="i">clone</text><text x="29.058" y="1.67" class="i">https://github.com/buck-ross/git-demo.git</text><text y="3.841" class="i">Cloning</text><text x="8.016" y="3.841" class="i">into</text><text x="13.026" y="3.841" class="i">&apos;git-demo&apos;...</text><text y="6.012" class="i">warning:</text><text x="9.018" y="6.012" class="i">You</text><text x="13.026" y="6.012" class="i">appear</text><text x="20.04" y="6.012" class="i">to</text><text x="23.046" y="6.012" class="i">have</text><text x="28.056" y="6.012" class="i">cloned</text><text x="35.07" y="6.012" class="i">an</text><text x="38.076" y="6.012" class="i">empty</text><text x="44.088" y="6.012" class="i">repository.</text><text y="8.183" class="h">[root@git-demo]</text><text x="16.032" y="8.183" class="h">/:</text><text x="19.038" y="8.183" class="i">cd</text><text x="22.044" y="8.183" class="i">git-demo</text><text y="10.354" class="h">[root@git-demo]</text><text x="16.032" y="10.354" class="h">/git-demo:</text><text x="27.054" y="10.354" class="i">ls</text><text x="30.06" y="10.354" class="i">-A1</text><text y="12.525" style="white-space:pre" fill="#71bef2" font-weight="700">.git</text><text x="4.008" y="12.525" class="i">/</text><text y="14.696" class="h">[root@git-demo]</text><text x="16.032" y="14.696" class="h">/git-demo:</text></svg></svg></g></svg></svg>