<svg xmlns="http://www.w3.org/2000/svg" xmlns:xlink="http://www.w3.org/1999/xlink" width="840" height="429.07"><rect width="840" height="429.07" rx="5" ry="5" class="a"/><svg y="0%" x="0%"><circle cx="20" cy="20" r="6" fill="#ff5f58"/><circle cx="40" cy="20" r="6" fill="#ffbd2e"/><circle cx="60" cy="20" r="6" fill="#18c132"/></svg><svg height="369.07" viewBox="0 0 80 36.907" width="800" x="15" xmlns="http://www.w3.org/2000/svg" xmlns:xlink="http://www.w3.org/1999/xlink" y="50"><style>.a{fill:#282d35}.h{font-weight:700}.h,.i{fill:#b9c0cb;white-space:pre}</style><g font-family="Monaco,Consolas,Menlo,'Bitstream Vera Sans Mono','Powerline Symbols',monospace" font-size="1.67"><defs><symbol id="a"><path fill="transparent" d="M0 0h80v18H0z"/></symbol><symbol id="b"><path fill="#6f7683" d="M0 0h1.102v2.171H0z"/></symbol></defs><path class="a" d="M0 0h80v36.907H0z"/><svg width="80"><svg><use xlink:href="#a"/><use xlink:href="#b" x="26.996" y="32.54"/><text y="1.67" class="h">[root@git-demo]</text><text x="16.032" y="1.67" class="h">/git-demo:</text><text x="27.054" y="1.67" class="i">git</text><text x="31.062" y="1.67" class="i">add</text><text x="35.07" y="1.67" class="i">fibonacci.py</text><text x="48.096" y="1.67" class="i">first.py</text><text y="3.841" class="h">[root@git-demo]</text><text x="16.032" y="3.841" class="h">/git-demo:</text><text x="27.054" y="3.841" class="i">git</text><text x="31.062" y="3.841" class="i">commit</text><text x="38.076" y="3.841" class="i">-m</text><text x="41.082" y="3.841" class="i">&apos;Added</text><text x="48.096" y="3.841" class="i">Fibonacci</text><text x="58.116" y="3.841" class="i">Algorithm&apos;</text><text y="6.012" class="i">WARNING:</text><text x="9.018" y="6.012" class="i">could</text><text x="15.03" y="6.012" class="i">not</text><text x="19.038" y="6.012" class="i">find</text><text x="24.048" y="6.012" class="i">&quot;gitlint&quot;</text><text x="34.068" y="6.012" class="i">in</text><text x="37.074" y="6.012" class="i">path.</text><text x="43.086" y="6.012" class="i">Skipping</text><text x="52.104" y="6.012" class="i">commit</text><text x="59.118" y="6.012" class="i">lint...</text><text y="8.183" class="i">[fibonacci</text><text x="11.022" y="8.183" class="i">11f979d]</text><text x="20.04" y="8.183" class="i">Added</text><text x="26.052" y="8.183" class="i">Fibonacci</text><text x="36.072" y="8.183" class="i">Algorithm</text><text x="1.002" y="10.354" class="i">2</text><text x="3.006" y="10.354" class="i">files</text><text x="9.018" y="10.354" class="i">changed,</text><text x="18.036" y="10.354" class="i">13</text><text x="21.042" y="10.354" class="i">insertions(+),</text><text x="36.072" y="10.354" class="i">1</text><text x="38.076" y="10.354" class="i">deletion(-)</text><text x="1.002" y="12.525" class="i">create</text><text x="8.016" y="12.525" class="i">mode</text><text x="13.026" y="12.525" class="i">100644</text><text x="20.04" y="12.525" class="i">fibonacci.py</text><text y="14.696" class="h">[root@git-demo]</text><text x="16.032" y="14.696" class="h">/git-demo:</text><text x="27.054" y="14.696" class="i">git</text><text x="31.062" y="14.696" class="i">push</text><text y="16.867" class="i">Enumerating</text><text x="12.024" y="16.867" class="i">objects:</text><text x="21.042" y="16.867" class="i">6,</text><text x="24.048" y="16.867" class="i">done.</text><text y="19.038" class="i">Counting</text><text x="9.018" y="19.038" class="i">objects:</text><text x="18.036" y="19.038" class="i">100%</text><text x="23.046" y="19.038" class="i">(6/6),</text><text x="30.06" y="19.038" class="i">done.</text><text y="21.209" class="i">Delta</text><text x="6.012" y="21.209" class="i">compression</text><text x="18.036" y="21.209" class="i">using</text><text x="24.048" y="21.209" class="i">up</text><text x="27.054" y="21.209" class="i">to</text><text x="30.06" y="21.209" class="i">2</text><text x="32.064" y="21.209" class="i">threads</text><text y="23.38" class="i">Compressing</text><text x="12.024" y="23.38" class="i">objects:</text><text x="21.042" y="23.38" class="i">100%</text><text x="26.052" y="23.38" class="i">(4/4),</text><text x="33.066" y="23.38" class="i">done.</text><text y="25.551" class="i">Writing</text><text x="8.016" y="25.551" class="i">objects:</text><text x="17.034" y="25.551" class="i">100%</text><text x="22.044" y="25.551" class="i">(4/4),</text><text x="29.058" y="25.551" class="i">589</text><text x="33.066" y="25.551" class="i">bytes</text><text x="39.078" y="25.551" class="i">|</text><text x="41.082" y="25.551" class="i">58.00</text><text x="47.094" y="25.551" class="i">KiB/s,</text><text x="54.108" y="25.551" class="i">done.</text><text y="27.722" class="i">Total</text><text x="6.012" y="27.722" class="i">4</text><text x="8.016" y="27.722" class="i">(delta</text><text x="15.03" y="27.722" class="i">0),</text><text x="19.038" y="27.722" class="i">reused</text><text x="26.052" y="27.722" class="i">0</text><text x="28.056" y="27.722" class="i">(delta</text><text x="35.07" y="27.722" class="i">0),</text><text x="39.078" y="27.722" class="i">pack-reused</text><text x="51.102" y="27.722" class="i">0</text><text y="29.893" class="i">To</text><text x="3.006" y="29.893" class="i">github.com:buck-ross/git-demo.git</text><text x="3.006" y="32.064" class="i">1494dfc..11f979d</text><text x="21.042" y="32.064" class="i">fibonacci</text><text x="31.062" y="32.064" class="i">-&gt;</text><text x="34.068" y="32.064" class="i">fibonacci</text><text y="34.235" class="h">[root@git-demo]</text><text x="16.032" y="34.235" class="h">/git-demo:</text></svg></svg></g></svg></svg>