<svg xmlns="http://www.w3.org/2000/svg" xmlns:xlink="http://www.w3.org/1999/xlink" width="840" height="971.82"><rect width="840" height="971.82" rx="5" ry="5" class="a"/><svg y="0%" x="0%"><circle cx="20" cy="20" r="6" fill="#ff5f58"/><circle cx="40" cy="20" r="6" fill="#ffbd2e"/><circle cx="60" cy="20" r="6" fill="#18c132"/></svg><svg height="911.82" viewBox="0 0 80 91.182" width="800" x="15" xmlns="http://www.w3.org/2000/svg" xmlns:xlink="http://www.w3.org/1999/xlink" y="50"><style>.a{fill:#282d35}.f{font-weight:700}.f,.g,.j,.k{fill:#b9c0cb;white-space:pre}.j,.k{fill:#e88388}.k{fill:#dbab79}</style><g font-family="Monaco,Consolas,Menlo,'Bitstream Vera Sans Mono','Powerline Symbols',monospace" font-size="1.67"><defs><symbol id="1"><text y="1.67" class="f">[root@git-demo]</text><text x="16.032" y="1.67" class="f">/myProject:</text><text x="28.056" y="1.67" class="g">git</text><text x="32.064" y="1.67" class="g">status</text></symbol><symbol id="2"><text y="1.67" class="g">nothing</text><text x="8.016" y="1.67" class="g">to</text><text x="11.022" y="1.67" class="g">commit,</text><text x="19.038" y="1.67" class="g">working</text><text x="27.054" y="1.67" class="g">tree</text><text x="32.064" y="1.67" class="g">clean</text></symbol><symbol id="a"><path fill="transparent" d="M0 0h80v43H0z"/></symbol><symbol id="b"><path fill="#6f7683" d="M0 0h1.102v2.171H0z"/></symbol></defs><path class="a" d="M0 0h80v91.182H0z"/><svg width="80"><svg><use xlink:href="#a"/><use xlink:href="#b" x="27.996" y="86.815"/><use xlink:href="#1"/><text y="3.841" class="g">On</text><text x="3.006" y="3.841" class="g">branch</text><text x="10.02" y="3.841" class="g">master</text><use xlink:href="#2" y="4.342"/><text y="8.183" class="f">[root@git-demo]</text><text x="16.032" y="8.183" class="f">/myProject:</text><text x="28.056" y="8.183" class="g">git</text><text x="32.064" y="8.183" class="g">checkout</text><text x="41.082" y="8.183" class="g">HEAD~</text><text y="10.354" class="g">Note:</text><text x="6.012" y="10.354" class="g">switching</text><text x="16.032" y="10.354" class="g">to</text><text x="19.038" y="10.354" class="g">&apos;HEAD~&apos;.</text><text y="14.696" class="g">You</text><text x="4.008" y="14.696" class="g">are</text><text x="8.016" y="14.696" class="g">in</text><text x="11.022" y="14.696" class="g">&apos;detached</text><text x="21.042" y="14.696" class="g">HEAD&apos;</text><text x="27.054" y="14.696" class="g">state.</text><text x="34.068" y="14.696" class="g">You</text><text x="38.076" y="14.696" class="g">can</text><text x="42.084" y="14.696" class="g">look</text><text x="47.094" y="14.696" class="g">around,</text><text x="55.11" y="14.696" class="g">make</text><text x="60.12" y="14.696" class="g">experimental</text><text y="16.867" class="g">changes</text><text x="8.016" y="16.867" class="g">and</text><text x="12.024" y="16.867" class="g">commit</text><text x="19.038" y="16.867" class="g">them,</text><text x="25.05" y="16.867" class="g">and</text><text x="29.058" y="16.867" class="g">you</text><text x="33.066" y="16.867" class="g">can</text><text x="37.074" y="16.867" class="g">discard</text><text x="45.09" y="16.867" class="g">any</text><text x="49.098" y="16.867" class="g">commits</text><text x="57.114" y="16.867" class="g">you</text><text x="61.122" y="16.867" class="g">make</text><text x="66.132" y="16.867" class="g">in</text><text x="69.138" y="16.867" class="g">this</text><text y="19.038" class="g">state</text><text x="6.012" y="19.038" class="g">without</text><text x="14.028" y="19.038" class="g">impacting</text><text x="24.048" y="19.038" class="g">any</text><text x="28.056" y="19.038" class="g">branches</text><text x="37.074" y="19.038" class="g">by</text><text x="40.08" y="19.038" class="g">switching</text><text x="50.1" y="19.038" class="g">back</text><text x="55.11" y="19.038" class="g">to</text><text x="58.116" y="19.038" class="g">a</text><text x="60.12" y="19.038" class="g">branch.</text><text y="23.38" class="g">If</text><text x="3.006" y="23.38" class="g">you</text><text x="7.014" y="23.38" class="g">want</text><text x="12.024" y="23.38" class="g">to</text><text x="15.03" y="23.38" class="g">create</text><text x="22.044" y="23.38" class="g">a</text><text x="24.048" y="23.38" class="g">new</text><text x="28.056" y="23.38" class="g">branch</text><text x="35.07" y="23.38" class="g">to</text><text x="38.076" y="23.38" class="g">retain</text><text x="45.09" y="23.38" class="g">commits</text><text x="53.106" y="23.38" class="g">you</text><text x="57.114" y="23.38" class="g">create,</text><text x="65.13" y="23.38" class="g">you</text><text x="69.138" y="23.38" class="g">may</text><text y="25.551" class="g">do</text><text x="3.006" y="25.551" class="g">so</text><text x="6.012" y="25.551" class="g">(now</text><text x="11.022" y="25.551" class="g">or</text><text x="14.028" y="25.551" class="g">later)</text><text x="21.042" y="25.551" class="g">by</text><text x="24.048" y="25.551" class="g">using</text><text x="30.06" y="25.551" class="g">-c</text><text x="33.066" y="25.551" class="g">with</text><text x="38.076" y="25.551" class="g">the</text><text x="42.084" y="25.551" class="g">switch</text><text x="49.098" y="25.551" class="g">command.</text><text x="58.116" y="25.551" class="g">Example:</text><text x="2.004" y="29.893" class="g">git</text><text x="6.012" y="29.893" class="g">switch</text><text x="13.026" y="29.893" class="g">-c</text><text x="16.032" y="29.893" class="g">&lt;new-branch-name&gt;</text><text y="34.235" class="g">Or</text><text x="3.006" y="34.235" class="g">undo</text><text x="8.016" y="34.235" class="g">this</text><text x="13.026" y="34.235" class="g">operation</text><text x="23.046" y="34.235" class="g">with:</text><text x="2.004" y="38.577" class="g">git</text><text x="6.012" y="38.577" class="g">switch</text><text x="13.026" y="38.577" class="g">-</text><text y="42.919" class="g">Turn</text><text x="5.01" y="42.919" class="g">off</text><text x="9.018" y="42.919" class="g">this</text><text x="14.028" y="42.919" class="g">advice</text><text x="21.042" y="42.919" class="g">by</text><text x="24.048" y="42.919" class="g">setting</text><text x="32.064" y="42.919" class="g">config</text><text x="39.078" y="42.919" class="g">variable</text><text x="48.096" y="42.919" class="g">advice.detachedHead</text><text x="68.136" y="42.919" class="g">to</text><text x="71.142" y="42.919" class="g">false</text><text y="47.261" class="g">HEAD</text><text x="5.01" y="47.261" class="g">is</text><text x="8.016" y="47.261" class="g">now</text><text x="12.024" y="47.261" class="g">at</text><text x="15.03" y="47.261" class="g">e55312e</text><text x="23.046" y="47.261" class="g">This</text><text x="28.056" y="47.261" class="g">is</text><text x="31.062" y="47.261" class="g">our</text><text x="35.07" y="47.261" class="g">first</text><text x="41.082" y="47.261" class="g">commit</text><use xlink:href="#1" y="47.762"/><text y="51.603" class="j">HEAD</text><text x="5.01" y="51.603" class="j">detached</text><text x="14.028" y="51.603" class="j">at</text><text x="17.034" y="51.603" class="g">e55312e</text><use xlink:href="#2" y="52.104"/><text y="55.945" class="f">[root@git-demo]</text><text x="16.032" y="55.945" class="f">/myProject:</text><text x="28.056" y="55.945" class="g">git</text><text x="32.064" y="55.945" class="g">log</text><text y="58.116" class="k">commit</text><text x="7.014" y="58.116" class="k">e55312e8593f1bdd41cb3f5ec0f940cbef0ab8f3</text><text x="48.096" y="58.116" class="k">(</text><text x="49.098" y="58.116" style="white-space:pre" fill="#66c2cd" font-weight="700">HEAD</text><text x="53.106" y="58.116" class="k">)</text><text y="60.287" class="g">Author:</text><text x="8.016" y="60.287" class="g">Buckley</text><text x="16.032" y="60.287" class="g">Ross</text><text x="21.042" y="60.287" class="g">&lt;brr322@lehigh.edu&gt;</text><text y="62.458" class="g">Date:</text><text x="8.016" y="62.458" class="g">Fri</text><text x="12.024" y="62.458" class="g">Oct</text><text x="16.032" y="62.458" class="g">2</text><text x="18.036" y="62.458" class="g">01:09:53</text><text x="27.054" y="62.458" class="g">2020</text><text x="32.064" y="62.458" class="g">+0000</text><text x="4.008" y="66.8" class="g">This</text><text x="9.018" y="66.8" class="g">is</text><text x="12.024" y="66.8" class="g">our</text><text x="16.032" y="66.8" class="g">first</text><text x="22.044" y="66.8" class="g">commit</text><text x="4.008" y="71.142" class="g">You</text><text x="8.016" y="71.142" class="g">can</text><text x="12.024" y="71.142" class="g">optionally</text><text x="23.046" y="71.142" class="g">add</text><text x="27.054" y="71.142" class="g">a</text><text x="29.058" y="71.142" class="g">more</text><text x="34.068" y="71.142" class="g">detailed</text><text x="43.086" y="71.142" class="g">description</text><text x="55.11" y="71.142" class="g">here,</text><text x="61.122" y="71.142" class="g">as</text><text x="64.128" y="71.142" class="g">long</text><text x="69.138" y="71.142" class="g">as</text><text x="72.144" y="71.142" class="g">you</text><text x="4.008" y="73.313" class="g">leave</text><text x="10.02" y="73.313" class="g">a</text><text x="12.024" y="73.313" class="g">blank</text><text x="18.036" y="73.313" class="g">line</text><text x="23.046" y="73.313" class="g">after</text><text x="29.058" y="73.313" class="g">the</text><text x="33.066" y="73.313" class="g">title.</text><text y="75.484" class="f">[root@git-demo]</text><text x="16.032" y="75.484" class="f">/myProject:</text><text x="28.056" y="75.484" class="g">cat</text><text x="32.064" y="75.484" class="g">first.py</text><text y="77.655" class="g">def</text><text x="4.008" y="77.655" class="g">main():</text><text x="8.016" y="79.826" class="g">print(&apos;Hello,</text><text x="22.044" y="79.826" class="g">git!&apos;)</text><text y="84.168" class="g">main()</text><text y="88.51" class="f">[root@git-demo]</text><text x="16.032" y="88.51" class="f">/myProject:</text></svg></svg></g></svg></svg>