<svg xmlns="http://www.w3.org/2000/svg" xmlns:xlink="http://www.w3.org/1999/xlink" width="840" height="277.1"><rect width="840" height="277.1" rx="5" ry="5" class="a"/><svg y="0%" x="0%"><circle cx="20" cy="20" r="6" fill="#ff5f58"/><circle cx="40" cy="20" r="6" fill="#ffbd2e"/><circle cx="60" cy="20" r="6" fill="#18c132"/></svg><svg height="217.1" viewBox="0 0 80 21.71" width="800" x="15" xmlns="http://www.w3.org/2000/svg" xmlns:xlink="http://www.w3.org/1999/xlink" y="50"><style>.a{fill:#282d35}.h{font-weight:700}.h,.i{fill:#b9c0cb;white-space:pre}</style><g font-family="Monaco,Consolas,Menlo,'Bitstream Vera Sans Mono','Powerline Symbols',monospace" font-size="1.67"><defs><symbol id="a"><path fill="transparent" d="M0 0h80v11H0z"/></symbol><symbol id="b"><path fill="#6f7683" d="M0 0h1.102v2.171H0z"/></symbol></defs><path class="a" d="M0 0h80v21.71H0z"/><svg width="80"><svg><use xlink:href="#a"/><use xlink:href="#b" x="27.996" y="17.343"/><text y="1.67" class="h">[root@git-demo]</text><text x="16.032" y="1.67" class="h">/myProject:</text><text x="28.056" y="1.67" class="i">git</text><text x="32.064" y="1.67" class="i">add</text><text x="36.072" y="1.67" class="i">first.py</text><text x="45.09" y="1.67" class="i">README.md</text><text y="3.841" class="h">[root@git-demo]</text><text x="16.032" y="3.841" class="h">/myProject:</text><text x="28.056" y="3.841" class="i">git</text><text x="32.064" y="3.841" class="i">commit</text><text x="39.078" y="3.841" class="i">-m</text><text x="42.084" y="3.841" class="i">&apos;This</text><text x="48.096" y="3.841" class="i">is</text><text x="51.102" y="3.841" class="i">our</text><text x="55.11" y="3.841" class="i">second</text><text x="62.124" y="3.841" class="i">commit&apos;</text><text y="6.012" class="i">[master</text><text x="8.016" y="6.012" class="i">7ff868e]</text><text x="17.034" y="6.012" class="i">This</text><text x="22.044" y="6.012" class="i">is</text><text x="25.05" y="6.012" class="i">our</text><text x="29.058" y="6.012" class="i">second</text><text x="36.072" y="6.012" class="i">commit</text><text x="1.002" y="8.183" class="i">2</text><text x="3.006" y="8.183" class="i">files</text><text x="9.018" y="8.183" class="i">changed,</text><text x="18.036" y="8.183" class="i">8</text><text x="20.04" y="8.183" class="i">insertions(+),</text><text x="35.07" y="8.183" class="i">1</text><text x="37.074" y="8.183" class="i">deletion(-)</text><text x="1.002" y="10.354" class="i">create</text><text x="8.016" y="10.354" class="i">mode</text><text x="13.026" y="10.354" class="i">100644</text><text x="20.04" y="10.354" class="i">README.md</text><text y="12.525" class="h">[root@git-demo]</text><text x="16.032" y="12.525" class="h">/myProject:</text><text x="28.056" y="12.525" class="i">git</text><text x="32.064" y="12.525" class="i">status</text><text y="14.696" class="i">On</text><text x="3.006" y="14.696" class="i">branch</text><text x="10.02" y="14.696" class="i">master</text><text y="16.867" class="i">nothing</text><text x="8.016" y="16.867" class="i">to</text><text x="11.022" y="16.867" class="i">commit,</text><text x="19.038" y="16.867" class="i">working</text><text x="27.054" y="16.867" class="i">tree</text><text x="32.064" y="16.867" class="i">clean</text><text y="19.038" class="h">[root@git-demo]</text><text x="16.032" y="19.038" class="h">/myProject:</text></svg></svg></g></svg></svg>