<svg xmlns="http://www.w3.org/2000/svg" xmlns:xlink="http://www.w3.org/1999/xlink" width="840" height="602.75"><rect width="840" height="602.75" rx="5" ry="5" class="a"/><svg y="0%" x="0%"><circle cx="20" cy="20" r="6" fill="#ff5f58"/><circle cx="40" cy="20" r="6" fill="#ffbd2e"/><circle cx="60" cy="20" r="6" fill="#18c132"/></svg><svg height="542.75" viewBox="0 0 80 54.275" width="800" x="15" xmlns="http://www.w3.org/2000/svg" xmlns:xlink="http://www.w3.org/1999/xlink" y="50"><style>.a{fill:#282d35}.h{font-weight:700}.h,.i,.j{fill:#b9c0cb;white-space:pre}.j{fill:#a8cc8c}</style><g font-family="Monaco,Consolas,Menlo,'Bitstream Vera Sans Mono','Powerline Symbols',monospace" font-size="1.67"><defs><symbol id="a"><path fill="transparent" d="M0 0h80v26H0z"/></symbol><symbol id="b"><path fill="#6f7683" d="M0 0h1.102v2.171H0z"/></symbol></defs><path class="a" d="M0 0h80v54.275H0z"/><svg width="80"><svg><use xlink:href="#a"/><use xlink:href="#b" x="25.996" y="49.908"/><text y="1.67" class="h">[bob@git-demo]</text><text x="15.03" y="1.67" class="h">/git-demo:</text><text x="26.052" y="1.67" class="i">git</text><text x="30.06" y="1.67" class="i">status</text><text y="3.841" class="i">On</text><text x="3.006" y="3.841" class="i">branch</text><text x="10.02" y="3.841" class="i">fibonacci</text><text y="6.012" class="i">Your</text><text x="5.01" y="6.012" class="i">branch</text><text x="12.024" y="6.012" class="i">is</text><text x="15.03" y="6.012" class="i">up</text><text x="18.036" y="6.012" class="i">to</text><text x="21.042" y="6.012" class="i">date</text><text x="26.052" y="6.012" class="i">with</text><text x="31.062" y="6.012" class="i">&apos;origin/fibonacci&apos;.</text><text y="10.354" class="i">nothing</text><text x="8.016" y="10.354" class="i">to</text><text x="11.022" y="10.354" class="i">commit,</text><text x="19.038" y="10.354" class="i">working</text><text x="27.054" y="10.354" class="i">tree</text><text x="32.064" y="10.354" class="i">clean</text><text y="12.525" class="h">[bob@git-demo]</text><text x="15.03" y="12.525" class="h">/git-demo:</text><text x="26.052" y="12.525" class="i">git</text><text x="30.06" y="12.525" class="i">checkout</text><text x="39.078" y="12.525" class="i">master</text><text y="14.696" class="i">Switched</text><text x="9.018" y="14.696" class="i">to</text><text x="12.024" y="14.696" class="i">branch</text><text x="19.038" y="14.696" class="i">&apos;master&apos;</text><text y="16.867" class="i">Your</text><text x="5.01" y="16.867" class="i">branch</text><text x="12.024" y="16.867" class="i">is</text><text x="15.03" y="16.867" class="i">up</text><text x="18.036" y="16.867" class="i">to</text><text x="21.042" y="16.867" class="i">date</text><text x="26.052" y="16.867" class="i">with</text><text x="31.062" y="16.867" class="i">&apos;origin/master&apos;.</text><text y="19.038" class="h">[bob@git-demo]</text><text x="15.03" y="19.038" class="h">/git-demo:</text><text x="26.052" y="19.038" class="i">git</text><text x="30.06" y="19.038" class="i">pull</text><text y="21.209" class="i">remote:</text><text x="8.016" y="21.209" class="i">Enumerating</text><text x="20.04" y="21.209" class="i">objects:</text><text x="29.058" y="21.209" class="i">9,</text><text x="32.064" y="21.209" class="i">done.</text><text y="23.38" class="i">remote:</text><text x="8.016" y="23.38" class="i">Counting</text><text x="17.034" y="23.38" class="i">objects:</text><text x="26.052" y="23.38" class="i">100%</text><text x="31.062" y="23.38" class="i">(9/9),</text><text x="38.076" y="23.38" class="i">done.</text><text y="25.551" class="i">remote:</text><text x="8.016" y="25.551" class="i">Compressing</text><text x="20.04" y="25.551" class="i">objects:</text><text x="29.058" y="25.551" class="i">100%</text><text x="34.068" y="25.551" class="i">(7/7),</text><text x="41.082" y="25.551" class="i">done.</text><text y="27.722" class="i">remote:</text><text x="8.016" y="27.722" class="i">Total</text><text x="14.028" y="27.722" class="i">7</text><text x="16.032" y="27.722" class="i">(delta</text><text x="23.046" y="27.722" class="i">0),</text><text x="27.054" y="27.722" class="i">reused</text><text x="34.068" y="27.722" class="i">6</text><text x="36.072" y="27.722" class="i">(delta</text><text x="43.086" y="27.722" class="i">0),</text><text x="47.094" y="27.722" class="i">pack-reused</text><text x="59.118" y="27.722" class="i">0</text><text y="29.893" class="i">Unpacking</text><text x="10.02" y="29.893" class="i">objects:</text><text x="19.038" y="29.893" class="i">100%</text><text x="24.048" y="29.893" class="i">(7/7),</text><text x="31.062" y="29.893" class="i">1.47</text><text x="36.072" y="29.893" class="i">KiB</text><text x="40.08" y="29.893" class="i">|</text><text x="42.084" y="29.893" class="i">18.00</text><text x="48.096" y="29.893" class="i">KiB/s,</text><text x="55.11" y="29.893" class="i">done.</text><text y="32.064" class="i">From</text><text x="5.01" y="32.064" class="i">github.com:buck-ross/git-demo</text><text x="3.006" y="34.235" class="i">1494dfc..1710a0a</text><text x="21.042" y="34.235" class="i">master</text><text x="34.068" y="34.235" class="i">-&gt;</text><text x="37.074" y="34.235" class="i">origin/master</text><text x="1.002" y="36.406" class="i">*</text><text x="3.006" y="36.406" class="i">[new</text><text x="8.016" y="36.406" class="i">branch]</text><text x="21.042" y="36.406" class="i">primeChecker</text><text x="34.068" y="36.406" class="i">-&gt;</text><text x="37.074" y="36.406" class="i">origin/primeChecker</text><text y="38.577" class="i">Updating</text><text x="9.018" y="38.577" class="i">1494dfc..1710a0a</text><text y="40.748" class="i">Fast-forward</text><text x="1.002" y="42.919" class="i">first.py</text><text x="17.034" y="42.919" class="i">|</text><text x="19.038" y="42.919" class="i">5</text><text x="21.042" y="42.919" class="j">++++</text><text x="25.05" y="42.919" style="white-space:pre" fill="#e88388">-</text><text x="1.002" y="45.09" class="i">primeChecker.py</text><text x="17.034" y="45.09" class="i">|</text><text x="19.038" y="45.09" class="i">8</text><text x="21.042" y="45.09" class="j">++++++++</text><text x="1.002" y="47.261" class="i">2</text><text x="3.006" y="47.261" class="i">files</text><text x="9.018" y="47.261" class="i">changed,</text><text x="18.036" y="47.261" class="i">12</text><text x="21.042" y="47.261" class="i">insertions(+),</text><text x="36.072" y="47.261" class="i">1</text><text x="38.076" y="47.261" class="i">deletion(-)</text><text x="1.002" y="49.432" class="i">create</text><text x="8.016" y="49.432" class="i">mode</text><text x="13.026" y="49.432" class="i">100644</text><text x="20.04" y="49.432" class="i">primeChecker.py</text><text y="51.603" class="h">[bob@git-demo]</text><text x="15.03" y="51.603" class="h">/git-demo:</text></svg></svg></g></svg></svg>