<svg xmlns="http://www.w3.org/2000/svg" xmlns:xlink="http://www.w3.org/1999/xlink" width="840" height="559.33"><rect width="840" height="559.33" rx="5" ry="5" class="a"/><svg y="0%" x="0%"><circle cx="20" cy="20" r="6" fill="#ff5f58"/><circle cx="40" cy="20" r="6" fill="#ffbd2e"/><circle cx="60" cy="20" r="6" fill="#18c132"/></svg><svg height="499.33" viewBox="0 0 80 49.933" width="800" x="15" xmlns="http://www.w3.org/2000/svg" xmlns:xlink="http://www.w3.org/1999/xlink" y="50"><style>.a{fill:#282d35}.f{fill:#b9c0cb}.f,.i,.j,.k{white-space:pre}.i{fill:#b9c0cb;font-weight:700}.j,.k{fill:#dbab79}.k{fill:#66c2cd;font-weight:700}</style><g font-family="Monaco,Consolas,Menlo,'Bitstream Vera Sans Mono','Powerline Symbols',monospace" font-size="1.67"><defs><symbol id="1"><text y="1.67" class="f">Author:</text><text x="8.016" y="1.67" class="f">Buckley</text><text x="16.032" y="1.67" class="f">Ross</text><text x="21.042" y="1.67" class="f">&lt;brr322@lehigh.edu&gt;</text></symbol><symbol id="a"><path fill="transparent" d="M0 0h80v24H0z"/></symbol><symbol id="b"><path fill="#6f7683" d="M0 0h1.102v2.171H0z"/></symbol></defs><path class="a" d="M0 0h80v49.933H0z"/><svg width="80"><svg><use xlink:href="#a"/><use xlink:href="#b" x="27.996" y="45.566"/><text y="1.67" class="i">[root@git-demo]</text><text x="16.032" y="1.67" class="i">/myProject:</text><text x="28.056" y="1.67" class="f">git</text><text x="32.064" y="1.67" class="f">checkout</text><text x="41.082" y="1.67" class="f">master</text><text y="3.841" class="f">Previous</text><text x="9.018" y="3.841" class="f">HEAD</text><text x="14.028" y="3.841" class="f">position</text><text x="23.046" y="3.841" class="f">was</text><text x="27.054" y="3.841" class="f">e55312e</text><text x="35.07" y="3.841" class="f">This</text><text x="40.08" y="3.841" class="f">is</text><text x="43.086" y="3.841" class="f">our</text><text x="47.094" y="3.841" class="f">first</text><text x="53.106" y="3.841" class="f">commit</text><text y="6.012" class="f">Switched</text><text x="9.018" y="6.012" class="f">to</text><text x="12.024" y="6.012" class="f">branch</text><text x="19.038" y="6.012" class="f">&apos;master&apos;</text><text y="8.183" class="i">[root@git-demo]</text><text x="16.032" y="8.183" class="i">/myProject:</text><text x="28.056" y="8.183" class="f">git</text><text x="32.064" y="8.183" class="f">status</text><text y="10.354" class="f">On</text><text x="3.006" y="10.354" class="f">branch</text><text x="10.02" y="10.354" class="f">master</text><text y="12.525" class="f">nothing</text><text x="8.016" y="12.525" class="f">to</text><text x="11.022" y="12.525" class="f">commit,</text><text x="19.038" y="12.525" class="f">working</text><text x="27.054" y="12.525" class="f">tree</text><text x="32.064" y="12.525" class="f">clean</text><text y="14.696" class="i">[root@git-demo]</text><text x="16.032" y="14.696" class="i">/myProject:</text><text x="28.056" y="14.696" class="f">git</text><text x="32.064" y="14.696" class="f">log</text><text y="16.867" class="j">commit</text><text x="7.014" y="16.867" class="j">7ff868e6307080fd83a1d78153df4cb073d961f6</text><text x="48.096" y="16.867" class="j">(</text><text x="49.098" y="16.867" class="k">HEAD</text><text x="54.108" y="16.867" class="k">-&gt;</text><text x="57.114" y="16.867" style="white-space:pre" fill="#a8cc8c" font-weight="700">master</text><text x="63.126" y="16.867" class="j">)</text><use xlink:href="#1" y="17.368"/><text y="21.209" class="f">Date:</text><text x="8.016" y="21.209" class="f">Sat</text><text x="12.024" y="21.209" class="f">Oct</text><text x="16.032" y="21.209" class="f">3</text><text x="18.036" y="21.209" class="f">01:03:39</text><text x="27.054" y="21.209" class="f">2020</text><text x="32.064" y="21.209" class="f">+0000</text><text x="4.008" y="25.551" class="f">This</text><text x="9.018" y="25.551" class="f">is</text><text x="12.024" y="25.551" class="f">our</text><text x="16.032" y="25.551" class="f">second</text><text x="23.046" y="25.551" class="f">commit</text><text y="29.893" class="j">commit</text><text x="7.014" y="29.893" class="j">e55312e8593f1bdd41cb3f5ec0f940cbef0ab8f3</text><use xlink:href="#1" y="30.394"/><text y="34.235" class="f">Date:</text><text x="8.016" y="34.235" class="f">Fri</text><text x="12.024" y="34.235" class="f">Oct</text><text x="16.032" y="34.235" class="f">2</text><text x="18.036" y="34.235" class="f">01:09:53</text><text x="27.054" y="34.235" class="f">2020</text><text x="32.064" y="34.235" class="f">+0000</text><text x="4.008" y="38.577" class="f">This</text><text x="9.018" y="38.577" class="f">is</text><text x="12.024" y="38.577" class="f">our</text><text x="16.032" y="38.577" class="f">first</text><text x="22.044" y="38.577" class="f">commit</text><text x="4.008" y="42.919" class="f">You</text><text x="8.016" y="42.919" class="f">can</text><text x="12.024" y="42.919" class="f">optionally</text><text x="23.046" y="42.919" class="f">add</text><text x="27.054" y="42.919" class="f">a</text><text x="29.058" y="42.919" class="f">more</text><text x="34.068" y="42.919" class="f">detailed</text><text x="43.086" y="42.919" class="f">description</text><text x="55.11" y="42.919" class="f">here,</text><text x="61.122" y="42.919" class="f">as</text><text x="64.128" y="42.919" class="f">long</text><text x="69.138" y="42.919" class="f">as</text><text x="72.144" y="42.919" class="f">you</text><text x="4.008" y="45.09" class="f">leave</text><text x="10.02" y="45.09" class="f">a</text><text x="12.024" y="45.09" class="f">blank</text><text x="18.036" y="45.09" class="f">line</text><text x="23.046" y="45.09" class="f">after</text><text x="29.058" y="45.09" class="f">the</text><text x="33.066" y="45.09" class="f">title.</text><text y="47.261" class="i">[root@git-demo]</text><text x="16.032" y="47.261" class="i">/myProject:</text></svg></svg></g></svg></svg>