<svg xmlns="http://www.w3.org/2000/svg" xmlns:xlink="http://www.w3.org/1999/xlink" width="840" height="407.36"><rect width="840" height="407.36" rx="5" ry="5" class="a"/><svg y="0%" x="0%"><circle cx="20" cy="20" r="6" fill="#ff5f58"/><circle cx="40" cy="20" r="6" fill="#ffbd2e"/><circle cx="60" cy="20" r="6" fill="#18c132"/></svg><svg height="347.36" viewBox="0 0 80 34.736" width="800" x="15" xmlns="http://www.w3.org/2000/svg" xmlns:xlink="http://www.w3.org/1999/xlink" y="50"><style>.a{fill:#282d35}.h{font-weight:700}.h,.i,.j,.k,.l{fill:#b9c0cb;white-space:pre}.j,.k,.l{fill:#66c2cd}.k,.l{fill:#a8cc8c}.l{fill:#e88388}</style><g font-family="Monaco,Consolas,Menlo,'Bitstream Vera Sans Mono','Powerline Symbols',monospace" font-size="1.67"><defs><symbol id="a"><path fill="transparent" d="M0 0h80v17H0z"/></symbol><symbol id="b"><path fill="#6f7683" d="M0 0h1.102v2.171H0z"/></symbol></defs><path class="a" d="M0 0h80v34.736H0z"/><svg width="80"><svg><use xlink:href="#a"/><use xlink:href="#b" x="27.996" y="32.54"/><text y="1.67" class="h">[root@git-demo]</text><text x="16.032" y="1.67" class="h">/myProject:</text><text x="28.056" y="1.67" class="i">git</text><text x="32.064" y="1.67" class="i">diff</text><text y="3.841" class="h">diff</text><text x="5.01" y="3.841" class="h">--git</text><text x="11.022" y="3.841" class="h">a/first.py</text><text x="22.044" y="3.841" class="h">b/first.py</text><text y="6.012" class="h">index</text><text x="6.012" y="6.012" class="h">78a5a19..87512b5</text><text x="23.046" y="6.012" class="h">100644</text><text y="8.183" class="h">---</text><text x="4.008" y="8.183" class="h">a/first.py</text><text y="10.354" class="h">+++</text><text x="4.008" y="10.354" class="h">b/first.py</text><text y="12.525" class="j">@@</text><text x="3.006" y="12.525" class="j">-1,5</text><text x="8.016" y="12.525" class="j">+1,8</text><text x="13.026" y="12.525" class="j">@@</text><text y="14.696" class="k">+import</text><text x="8.016" y="14.696" class="k">random</text><text y="16.867" class="k">+</text><text x="1.002" y="19.038" class="i">def</text><text x="5.01" y="19.038" class="i">main():</text><text y="21.209" class="l">-</text><text x="8.016" y="21.209" class="l">print(&apos;Hello,</text><text x="22.044" y="21.209" class="l">git!&apos;)</text><text y="23.38" class="k">+</text><text x="8.016" y="23.38" class="k">myNum</text><text x="14.028" y="23.38" class="k">=</text><text x="16.032" y="23.38" class="k">random.randint(0,</text><text x="34.068" y="23.38" class="k">9)</text><text y="25.551" class="k">+</text><text x="8.016" y="25.551" class="k">print(&apos;Here</text><text x="20.04" y="25.551" class="k">is</text><text x="23.046" y="25.551" class="k">a</text><text x="25.05" y="25.551" class="k">random</text><text x="32.064" y="25.551" class="k">number:</text><text x="40.08" y="25.551" class="k">{0}&apos;.format(myNum))</text><text x="1.002" y="29.893" class="i">main()</text><text y="34.235" class="h">[root@git-demo]</text><text x="16.032" y="34.235" class="h">/myProject:</text></svg></svg></g></svg></svg>