<svg xmlns="http://www.w3.org/2000/svg" xmlns:xlink="http://www.w3.org/1999/xlink" width="760" height="255.39"><rect width="760" height="255.39" rx="5" ry="5" class="a"/><svg y="0%" x="0%"><circle cx="20" cy="20" r="6" fill="#ff5f58"/><circle cx="40" cy="20" r="6" fill="#ffbd2e"/><circle cx="60" cy="20" r="6" fill="#18c132"/></svg><svg height="195.39" viewBox="0 0 72 19.539" width="720" x="15" xmlns="http://www.w3.org/2000/svg" xmlns:xlink="http://www.w3.org/1999/xlink" y="50"><style>@keyframes k{0%{transform:translateX(0)}.69%{transform:translateX(-72px)}.7%{transform:translateX(-144px)}5.05%{transform:translateX(-216px)}5.32%{transform:translateX(-288px)}6.44%{transform:translateX(-360px)}7.36%{transform:translateX(-432px)}7.68%{transform:translateX(-504px)}9.15%{transform:translateX(-576px)}11.95%{transform:translateX(-648px)}12.31%{transform:translateX(-720px)}14.34%{transform:translateX(-792px)}15.58%{transform:translateX(-864px)}16.34%{transform:translateX(-936px)}18.37%{transform:translateX(-1008px)}18.93%{transform:translateX(-1080px)}20.37%{transform:translateX(-1152px)}25.27%{transform:translateX(-1224px)}25.31%{transform:translateX(-1368px)}27.75%{transform:translateX(-1440px)}28.06%{transform:translateX(-1512px)}29.06%{transform:translateX(-1584px)}30.86%{transform:translateX(-1656px)}31.26%{transform:translateX(-1728px)}32.1%{transform:translateX(-1800px)}37.24%{transform:translateX(-1872px)}41.43%{transform:translateX(-1944px)}41.79%{transform:translateX(-2016px)}42.63%{transform:translateX(-2088px)}44.38%{transform:translateX(-2160px)}45.94%{transform:translateX(-2232px)}47.21%{transform:translateX(-2304px)}51.84%{transform:translateX(-2376px)}51.87%{transform:translateX(-2448px)}58.15%{transform:translateX(-2520px)}58.94%{transform:translateX(-2592px)}59.26%{transform:translateX(-2664px)}61.46%{transform:translateX(-2736px)}63.29%{transform:translateX(-2808px)}63.57%{transform:translateX(-2880px)}65.01%{transform:translateX(-2952px)}66.24%{transform:translateX(-3024px)}72.11%{transform:translateX(-3096px)}72.25%{transform:translateX(-3168px)}72.26%{transform:translateX(-3240px)}72.27%{transform:translateX(-3384px)}77.1%{transform:translateX(-3456px)}77.53%{transform:translateX(-3528px)}78.37%{transform:translateX(-3600px)}79.53%{transform:translateX(-3672px)}82.52%{transform:translateX(-3744px)}83.44%{transform:translateX(-3816px)}86.43%{transform:translateX(-3888px)}86.47%{transform:translateX(-4032px)}to{transform:translateX(-4104px)}}.a{fill:#282d35}.f{font-weight:700}.f,.g{fill:#b9c0cb;white-space:pre}</style><g font-family="Monaco,Consolas,Menlo,'Bitstream Vera Sans Mono','Powerline Symbols',monospace" font-size="1.67"><defs><symbol id="1"><text y="1.67" class="f">[root@git-demo]</text><text x="16.032" y="1.67" class="f">/:</text></symbol><symbol id="2"><text y="1.67" class="f">[root@git-demo]</text><text x="16.032" y="1.67" class="f">/:</text><text x="19.038" y="1.67" class="g">mkdir</text></symbol><symbol id="3"><text y="1.67" class="f">[root@git-demo]</text><text x="16.032" y="1.67" class="f">/:</text><text x="19.038" y="1.67" class="g">mkdir</text><text x="25.05" y="1.67" class="g">myProject</text></symbol><symbol id="4"><text y="1.67" class="f">[root@git-demo]</text><text x="16.032" y="1.67" class="f">/:</text><text x="19.038" y="1.67" class="g">cd</text></symbol><symbol id="5"><text y="1.67" class="f">[root@git-demo]</text><text x="16.032" y="1.67" class="f">/:</text><text x="19.038" y="1.67" class="g">cd</text><text x="22.044" y="1.67" class="g">myProject/</text></symbol><symbol id="6"><text y="1.67" class="f">[root@git-demo]</text><text x="16.032" y="1.67" class="f">/myProject:</text></symbol><symbol id="7"><text y="1.67" class="f">[root@git-demo]</text><text x="16.032" y="1.67" class="f">/myProject:</text><text x="28.056" y="1.67" class="g">l</text></symbol><symbol id="8"><text y="1.67" class="f">[root@git-demo]</text><text x="16.032" y="1.67" class="f">/myProject:</text><text x="28.056" y="1.67" class="g">ls</text></symbol><symbol id="9"><text y="1.67" class="f">[root@git-demo]</text><text x="16.032" y="1.67" class="f">/myProject:</text><text x="28.056" y="1.67" class="g">ls</text><text x="31.062" y="1.67" class="g">-</text></symbol><symbol id="10"><text y="1.67" class="f">[root@git-demo]</text><text x="16.032" y="1.67" class="f">/myProject:</text><text x="28.056" y="1.67" class="g">ls</text><text x="31.062" y="1.67" class="g">-A</text></symbol><symbol id="11"><text y="1.67" class="f">[root@git-demo]</text><text x="16.032" y="1.67" class="f">/myProject:</text><text x="28.056" y="1.67" class="g">ls</text><text x="31.062" y="1.67" class="g">-A1</text></symbol><symbol id="12"><text y="1.67" class="f">[root@git-demo]</text><text x="16.032" y="1.67" class="f">/myProject:</text><text x="28.056" y="1.67" class="g">git</text></symbol><symbol id="13"><text y="1.67" class="f">[root@git-demo]</text><text x="16.032" y="1.67" class="f">/myProject:</text><text x="28.056" y="1.67" class="g">git</text><text x="32.064" y="1.67" class="g">init</text></symbol><symbol id="14"><text y="1.67" class="g">Initialized</text><text x="12.024" y="1.67" class="g">empty</text><text x="18.036" y="1.67" class="g">Git</text><text x="22.044" y="1.67" class="g">repository</text><text x="33.066" y="1.67" class="g">in</text><text x="36.072" y="1.67" class="g">/myProject/.git/</text></symbol><symbol id="15"><text y="1.67" style="white-space:pre" fill="#71bef2" font-weight="700">.git</text><text x="4.008" y="1.67" class="g">/</text></symbol><symbol id="a"><path fill="transparent" d="M0 0h72v10H0z"/></symbol><symbol id="b"><path fill="#6f7683" d="M0 0h1.102v2.171H0z"/></symbol></defs><path class="a" d="M0 0h72v19.539H0z"/><g style="animation-duration:20.052785s;animation-iteration-count:infinite;animation-name:k;animation-timing-function:steps(1,end)"><svg width="4176"><svg><use xlink:href="#a"/><use xlink:href="#b" x="-.004"/></svg><svg x="72"><use xlink:href="#a"/><use xlink:href="#b" x="-.004"/></svg><svg x="144"><use xlink:href="#a"/><use xlink:href="#b" x="18.996"/><use xlink:href="#1"/></svg><svg x="216"><use xlink:href="#a"/><use xlink:href="#b" x="19.996"/><text y="1.67" class="f">[root@git-demo]</text><text x="16.032" y="1.67" class="f">/:</text><text x="19.038" y="1.67" class="g">m</text></svg><svg x="288"><use xlink:href="#a"/><use xlink:href="#b" x="20.996"/><text y="1.67" class="f">[root@git-demo]</text><text x="16.032" y="1.67" class="f">/:</text><text x="19.038" y="1.67" class="g">mk</text></svg><svg x="360"><use xlink:href="#a"/><use xlink:href="#b" x="21.996"/><text y="1.67" class="f">[root@git-demo]</text><text x="16.032" y="1.67" class="f">/:</text><text x="19.038" y="1.67" class="g">mkd</text></svg><svg x="432"><use xlink:href="#a"/><use xlink:href="#b" x="22.996"/><text y="1.67" class="f">[root@git-demo]</text><text x="16.032" y="1.67" class="f">/:</text><text x="19.038" y="1.67" class="g">mkdi</text></svg><svg x="504"><use xlink:href="#a"/><use xlink:href="#b" x="23.996"/><use xlink:href="#2"/></svg><svg x="576"><use xlink:href="#a"/><use xlink:href="#b" x="24.996"/><use xlink:href="#2"/></svg><svg x="648"><use xlink:href="#a"/><use xlink:href="#b" x="25.996"/><text y="1.67" class="f">[root@git-demo]</text><text x="16.032" y="1.67" class="f">/:</text><text x="19.038" y="1.67" class="g">mkdir</text><text x="25.05" y="1.67" class="g">m</text></svg><svg x="720"><use xlink:href="#a"/><use xlink:href="#b" x="26.996"/><text y="1.67" class="f">[root@git-demo]</text><text x="16.032" y="1.67" class="f">/:</text><text x="19.038" y="1.67" class="g">mkdir</text><text x="25.05" y="1.67" class="g">my</text></svg><svg x="792"><use xlink:href="#a"/><use xlink:href="#b" x="27.996"/><text y="1.67" class="f">[root@git-demo]</text><text x="16.032" y="1.67" class="f">/:</text><text x="19.038" y="1.67" class="g">mkdir</text><text x="25.05" y="1.67" class="g">myP</text></svg><svg x="864"><use xlink:href="#a"/><use xlink:href="#b" x="28.996"/><text y="1.67" class="f">[root@git-demo]</text><text x="16.032" y="1.67" class="f">/:</text><text x="19.038" y="1.67" class="g">mkdir</text><text x="25.05" y="1.67" class="g">myPr</text></svg><svg x="936"><use xlink:href="#a"/><use xlink:href="#b" x="29.996"/><text y="1.67" class="f">[root@git-demo]</text><text x="16.032" y="1.67" class="f">/:</text><text x="19.038" y="1.67" class="g">mkdir</text><text x="25.05" y="1.67" class="g">myPro</text></svg><svg x="1008"><use xlink:href="#a"/><use xlink:href="#b" x="31.996"/><text y="1.67" class="f">[root@git-demo]</text><text x="16.032" y="1.67" class="f">/:</text><text x="19.038" y="1.67" class="g">mkdir</text><text x="25.05" y="1.67" class="g">myProje</text></svg><svg x="1080"><use xlink:href="#a"/><use xlink:href="#b" x="32.996"/><text y="1.67" class="f">[root@git-demo]</text><text x="16.032" y="1.67" class="f">/:</text><text x="19.038" y="1.67" class="g">mkdir</text><text x="25.05" y="1.67" class="g">myProjec</text></svg><svg x="1152"><use xlink:href="#a"/><use xlink:href="#b" x="33.996"/><use xlink:href="#3"/></svg><svg x="1224"><use xlink:href="#a"/><use xlink:href="#b" x="-.004" y="2.146"/><use xlink:href="#3"/></svg><svg x="1296"><use xlink:href="#a"/><use xlink:href="#b" x="-.004" y="2.146"/><use xlink:href="#3"/></svg><svg x="1368"><use xlink:href="#a"/><use xlink:href="#b" x="18.996" y="2.146"/><use xlink:href="#3"/><use xlink:href="#1" y="2.171"/></svg><svg x="1440"><use xlink:href="#a"/><use xlink:href="#b" x="19.996" y="2.146"/><use xlink:href="#3"/><text y="3.841" class="f">[root@git-demo]</text><text x="16.032" y="3.841" class="f">/:</text><text x="19.038" y="3.841" class="g">c</text></svg><svg x="1512"><use xlink:href="#a"/><use xlink:href="#b" x="20.996" y="2.146"/><use xlink:href="#3"/><use xlink:href="#4" y="2.171"/></svg><svg x="1584"><use xlink:href="#a"/><use xlink:href="#b" x="21.996" y="2.146"/><use xlink:href="#3"/><use xlink:href="#4" y="2.171"/></svg><svg x="1656"><use xlink:href="#a"/><use xlink:href="#b" x="22.996" y="2.146"/><use xlink:href="#3"/><text y="3.841" class="f">[root@git-demo]</text><text x="16.032" y="3.841" class="f">/:</text><text x="19.038" y="3.841" class="g">cd</text><text x="22.044" y="3.841" class="g">m</text></svg><svg x="1728"><use xlink:href="#a"/><use xlink:href="#b" x="23.996" y="2.146"/><use xlink:href="#3"/><text y="3.841" class="f">[root@git-demo]</text><text x="16.032" y="3.841" class="f">/:</text><text x="19.038" y="3.841" class="g">cd</text><text x="22.044" y="3.841" class="g">my</text></svg><svg x="1800"><use xlink:href="#a"/><use xlink:href="#b" x="31.996" y="2.146"/><use xlink:href="#3"/><use xlink:href="#5" y="2.171"/></svg><svg x="1872"><use xlink:href="#a"/><use xlink:href="#b" x="27.996" y="4.317"/><use xlink:href="#3"/><use xlink:href="#5" y="2.171"/><use xlink:href="#6" y="4.342"/></svg><svg x="1944"><use xlink:href="#a"/><use xlink:href="#b" x="28.996" y="4.317"/><use xlink:href="#3"/><use xlink:href="#5" y="2.171"/><use xlink:href="#7" y="4.342"/></svg><svg x="2016"><use xlink:href="#a"/><use xlink:href="#b" x="29.996" y="4.317"/><use xlink:href="#3"/><use xlink:href="#5" y="2.171"/><use xlink:href="#8" y="4.342"/></svg><svg x="2088"><use xlink:href="#a"/><use xlink:href="#b" x="30.996" y="4.317"/><use xlink:href="#3"/><use xlink:href="#5" y="2.171"/><use xlink:href="#8" y="4.342"/></svg><svg x="2160"><use xlink:href="#a"/><use xlink:href="#b" x="31.996" y="4.317"/><use xlink:href="#3"/><use xlink:href="#5" y="2.171"/><use xlink:href="#9" y="4.342"/></svg><svg x="2232"><use xlink:href="#a"/><use xlink:href="#b" x="32.996" y="4.317"/><use xlink:href="#3"/><use xlink:href="#5" y="2.171"/><use xlink:href="#10" y="4.342"/></svg><svg x="2304"><use xlink:href="#a"/><use xlink:href="#b" x="33.996" y="4.317"/><use xlink:href="#3"/><use xlink:href="#5" y="2.171"/><use xlink:href="#11" y="4.342"/></svg><svg x="2376"><use xlink:href="#a"/><use xlink:href="#b" x="-.004" y="6.488"/><use xlink:href="#3"/><use xlink:href="#5" y="2.171"/><use xlink:href="#11" y="4.342"/></svg><svg x="2448"><use xlink:href="#a"/><use xlink:href="#b" x="27.996" y="6.488"/><use xlink:href="#3"/><use xlink:href="#5" y="2.171"/><use xlink:href="#11" y="4.342"/><use xlink:href="#6" y="6.513"/></svg><svg x="2520"><use xlink:href="#a"/><use xlink:href="#b" x="28.996" y="6.488"/><use xlink:href="#3"/><use xlink:href="#5" y="2.171"/><use xlink:href="#11" y="4.342"/><text y="8.183" class="f">[root@git-demo]</text><text x="16.032" y="8.183" class="f">/myProject:</text><text x="28.056" y="8.183" class="g">g</text></svg><svg x="2592"><use xlink:href="#a"/><use xlink:href="#b" x="29.996" y="6.488"/><use xlink:href="#3"/><use xlink:href="#5" y="2.171"/><use xlink:href="#11" y="4.342"/><text y="8.183" class="f">[root@git-demo]</text><text x="16.032" y="8.183" class="f">/myProject:</text><text x="28.056" y="8.183" class="g">gi</text></svg><svg x="2664"><use xlink:href="#a"/><use xlink:href="#b" x="30.996" y="6.488"/><use xlink:href="#3"/><use xlink:href="#5" y="2.171"/><use xlink:href="#11" y="4.342"/><use xlink:href="#12" y="6.513"/></svg><svg x="2736"><use xlink:href="#a"/><use xlink:href="#b" x="31.996" y="6.488"/><use xlink:href="#3"/><use xlink:href="#5" y="2.171"/><use xlink:href="#11" y="4.342"/><use xlink:href="#12" y="6.513"/></svg><svg x="2808"><use xlink:href="#a"/><use xlink:href="#b" x="32.996" y="6.488"/><use xlink:href="#3"/><use xlink:href="#5" y="2.171"/><use xlink:href="#11" y="4.342"/><text y="8.183" class="f">[root@git-demo]</text><text x="16.032" y="8.183" class="f">/myProject:</text><text x="28.056" y="8.183" class="g">git</text><text x="32.064" y="8.183" class="g">i</text></svg><svg x="2880"><use xlink:href="#a"/><use xlink:href="#b" x="33.996" y="6.488"/><use xlink:href="#3"/><use xlink:href="#5" y="2.171"/><use xlink:href="#11" y="4.342"/><text y="8.183" class="f">[root@git-demo]</text><text x="16.032" y="8.183" class="f">/myProject:</text><text x="28.056" y="8.183" class="g">git</text><text x="32.064" y="8.183" class="g">in</text></svg><svg x="2952"><use xlink:href="#a"/><use xlink:href="#b" x="34.996" y="6.488"/><use xlink:href="#3"/><use xlink:href="#5" y="2.171"/><use xlink:href="#11" y="4.342"/><text y="8.183" class="f">[root@git-demo]</text><text x="16.032" y="8.183" class="f">/myProject:</text><text x="28.056" y="8.183" class="g">git</text><text x="32.064" y="8.183" class="g">ini</text></svg><svg x="3024"><use xlink:href="#a"/><use xlink:href="#b" x="35.996" y="6.488"/><use xlink:href="#3"/><use xlink:href="#5" y="2.171"/><use xlink:href="#11" y="4.342"/><use xlink:href="#13" y="6.513"/></svg><svg x="3096"><use xlink:href="#a"/><use xlink:href="#b" x="-.004" y="8.659"/><use xlink:href="#3"/><use xlink:href="#5" y="2.171"/><use xlink:href="#11" y="4.342"/><use xlink:href="#13" y="6.513"/></svg><svg x="3168"><use xlink:href="#a"/><use xlink:href="#b" x="51.996" y="8.659"/><use xlink:href="#3"/><use xlink:href="#5" y="2.171"/><use xlink:href="#11" y="4.342"/><use xlink:href="#13" y="6.513"/><use xlink:href="#14" y="8.684"/></svg><svg x="3240"><use xlink:href="#a"/><use xlink:href="#b" x="-.004" y="10.83"/><use xlink:href="#3"/><use xlink:href="#5" y="2.171"/><use xlink:href="#11" y="4.342"/><use xlink:href="#13" y="6.513"/><use xlink:href="#14" y="8.684"/></svg><svg x="3312"><use xlink:href="#a"/><use xlink:href="#b" x="-.004" y="10.83"/><use xlink:href="#3"/><use xlink:href="#5" y="2.171"/><use xlink:href="#11" y="4.342"/><use xlink:href="#13" y="6.513"/><use xlink:href="#14" y="8.684"/></svg><svg x="3384"><use xlink:href="#a"/><use xlink:href="#b" x="27.996" y="10.83"/><use xlink:href="#3"/><use xlink:href="#5" y="2.171"/><use xlink:href="#11" y="4.342"/><use xlink:href="#13" y="6.513"/><use xlink:href="#14" y="8.684"/><use xlink:href="#6" y="10.855"/></svg><svg x="3456"><use xlink:href="#a"/><use xlink:href="#b" x="28.996" y="10.83"/><use xlink:href="#3"/><use xlink:href="#5" y="2.171"/><use xlink:href="#11" y="4.342"/><use xlink:href="#13" y="6.513"/><use xlink:href="#14" y="8.684"/><use xlink:href="#7" y="10.855"/></svg><svg x="3528"><use xlink:href="#a"/><use xlink:href="#b" x="29.996" y="10.83"/><use xlink:href="#3"/><use xlink:href="#5" y="2.171"/><use xlink:href="#11" y="4.342"/><use xlink:href="#13" y="6.513"/><use xlink:href="#14" y="8.684"/><use xlink:href="#8" y="10.855"/></svg><svg x="3600"><use xlink:href="#a"/><use xlink:href="#b" x="30.996" y="10.83"/><use xlink:href="#3"/><use xlink:href="#5" y="2.171"/><use xlink:href="#11" y="4.342"/><use xlink:href="#13" y="6.513"/><use xlink:href="#14" y="8.684"/><use xlink:href="#8" y="10.855"/></svg><svg x="3672"><use xlink:href="#a"/><use xlink:href="#b" x="31.996" y="10.83"/><use xlink:href="#3"/><use xlink:href="#5" y="2.171"/><use xlink:href="#11" y="4.342"/><use xlink:href="#13" y="6.513"/><use xlink:href="#14" y="8.684"/><use xlink:href="#9" y="10.855"/></svg><svg x="3744"><use xlink:href="#a"/><use xlink:href="#b" x="32.996" y="10.83"/><use xlink:href="#3"/><use xlink:href="#5" y="2.171"/><use xlink:href="#11" y="4.342"/><use xlink:href="#13" y="6.513"/><use xlink:href="#14" y="8.684"/><use xlink:href="#10" y="10.855"/></svg><svg x="3816"><use xlink:href="#a"/><use xlink:href="#b" x="33.996" y="10.83"/><use xlink:href="#3"/><use xlink:href="#5" y="2.171"/><use xlink:href="#11" y="4.342"/><use xlink:href="#13" y="6.513"/><use xlink:href="#14" y="8.684"/><use xlink:href="#11" y="10.855"/></svg><svg x="3888"><use xlink:href="#a"/><use xlink:href="#b" x="-.004" y="13.001"/><use xlink:href="#3"/><use xlink:href="#5" y="2.171"/><use xlink:href="#11" y="4.342"/><use xlink:href="#13" y="6.513"/><use xlink:href="#14" y="8.684"/><use xlink:href="#11" y="10.855"/></svg><svg x="3960"><use xlink:href="#a"/><use xlink:href="#b" x="-.004" y="15.172"/><use xlink:href="#3"/><use xlink:href="#5" y="2.171"/><use xlink:href="#11" y="4.342"/><use xlink:href="#13" y="6.513"/><use xlink:href="#14" y="8.684"/><use xlink:href="#11" y="10.855"/><use xlink:href="#15" y="13.026"/></svg><svg x="4032"><use xlink:href="#a"/><use xlink:href="#b" x="27.996" y="15.172"/><use xlink:href="#3"/><use xlink:href="#5" y="2.171"/><use xlink:href="#11" y="4.342"/><use xlink:href="#13" y="6.513"/><use xlink:href="#14" y="8.684"/><use xlink:href="#11" y="10.855"/><use xlink:href="#15" y="13.026"/><use xlink:href="#6" y="15.197"/></svg><svg x="4104"><use xlink:href="#a"/><use xlink:href="#b" x="-.004" y="19.514"/><use xlink:href="#3"/><use xlink:href="#5" y="2.171"/><use xlink:href="#11" y="4.342"/><use xlink:href="#13" y="6.513"/><use xlink:href="#14" y="8.684"/><use xlink:href="#11" y="10.855"/><use xlink:href="#15" y="13.026"/><use xlink:href="#6" y="15.197"/><text y="19.038" class="g">exit</text></svg></svg></g></g></svg></svg>