<svg xmlns="http://www.w3.org/2000/svg" xmlns:xlink="http://www.w3.org/1999/xlink" width="760" height="168.55"><rect width="760" height="168.55" rx="5" ry="5" class="a"/><svg y="0%" x="0%"><circle cx="20" cy="20" r="6" fill="#ff5f58"/><circle cx="40" cy="20" r="6" fill="#ffbd2e"/><circle cx="60" cy="20" r="6" fill="#18c132"/></svg><svg height="108.55" viewBox="0 0 72 10.855" width="720" x="15" xmlns="http://www.w3.org/2000/svg" xmlns:xlink="http://www.w3.org/1999/xlink" y="50"><style>.a{fill:#282d35}.h{font-weight:700}.h,.i{fill:#b9c0cb;white-space:pre}</style><g font-family="Monaco,Consolas,Menlo,'Bitstream Vera Sans Mono','Powerline Symbols',monospace" font-size="1.67"><defs><symbol id="a"><path fill="transparent" d="M0 0h72v6H0z"/></symbol><symbol id="b"><path fill="#6f7683" d="M0 0h1.102v2.171H0z"/></symbol></defs><path class="a" d="M0 0h72v10.855H0z"/><svg width="72"><svg><use xlink:href="#a"/><use xlink:href="#b" x="18.996" y="6.488"/><text y="1.67" class="h">[root@git-demo]</text><text x="16.032" y="1.67" class="h">/:</text><text x="19.038" y="1.67" class="i">git</text><text x="23.046" y="1.67" class="i">config</text><text x="30.06" y="1.67" class="i">--global</text><text x="39.078" y="1.67" class="i">user.name</text><text x="49.098" y="1.67" class="i">&apos;Buckley</text><text x="58.116" y="1.67" class="i">Ross&apos;</text><text y="3.841" class="h">[root@git-demo]</text><text x="16.032" y="3.841" class="h">/:</text><text x="19.038" y="3.841" class="i">git</text><text x="23.046" y="3.841" class="i">config</text><text x="30.06" y="3.841" class="i">--global</text><text x="39.078" y="3.841" class="i">user.email</text><text x="50.1" y="3.841" class="i">&apos;brr322@lehigh.edu&apos;</text><text y="6.012" class="h">[root@git-demo]</text><text x="16.032" y="6.012" class="h">/:</text><text x="19.038" y="6.012" class="i">git</text><text x="23.046" y="6.012" class="i">config</text><text x="30.06" y="6.012" class="i">--global</text><text x="39.078" y="6.012" class="i">core.editor</text><text x="51.102" y="6.012" class="i">&apos;nvim&apos;</text><text y="8.183" class="h">[root@git-demo]</text><text x="16.032" y="8.183" class="h">/:</text></svg></svg></g></svg></svg>