<svg xmlns="http://www.w3.org/2000/svg" xmlns:xlink="http://www.w3.org/1999/xlink" width="840" height="624.46"><rect width="840" height="624.46" rx="5" ry="5" class="a"/><svg y="0%" x="0%"><circle cx="20" cy="20" r="6" fill="#ff5f58"/><circle cx="40" cy="20" r="6" fill="#ffbd2e"/><circle cx="60" cy="20" r="6" fill="#18c132"/></svg><svg height="564.46" viewBox="0 0 80 56.446" width="800" x="15" xmlns="http://www.w3.org/2000/svg" xmlns:xlink="http://www.w3.org/1999/xlink" y="50"><style>.a{fill:#282d35}.f,.i{fill:#b9c0cb;white-space:pre}.i{font-weight:700}.j,.k,.l,.m{fill:#dbab79;white-space:pre}.k,.l,.m{fill:#66c2cd;font-weight:700}.l,.m{fill:#a8cc8c}.m{fill:#e88388}</style><g font-family="Monaco,Consolas,Menlo,'Bitstream Vera Sans Mono','Powerline Symbols',monospace" font-size="1.67"><defs><symbol id="1"><text y="1.67" class="f">Author:</text><text x="8.016" y="1.67" class="f">Buckley</text><text x="16.032" y="1.67" class="f">Ross</text><text x="21.042" y="1.67" class="f">&lt;brr322@lehigh.edu&gt;</text></symbol><symbol id="a"><path fill="transparent" d="M0 0h80v27H0z"/></symbol><symbol id="b"><path fill="#6f7683" d="M0 0h1.102v2.171H0z"/></symbol></defs><path class="a" d="M0 0h80v56.446H0z"/><svg width="80"><svg><use xlink:href="#a"/><use xlink:href="#b" x="28.996" y="52.079"/><text y="1.67" class="i">[alice@git-demo]</text><text x="17.034" y="1.67" class="i">/myProject:</text><text x="29.058" y="1.67" class="f">git</text><text x="33.066" y="1.67" class="f">log</text><text x="37.074" y="1.67" class="f">-3</text><text x="40.08" y="1.67" class="f">--abbrev-commit</text><text y="3.841" class="j">commit</text><text x="7.014" y="3.841" class="j">48d0d5f</text><text x="15.03" y="3.841" class="j">(</text><text x="16.032" y="3.841" class="k">HEAD</text><text x="21.042" y="3.841" class="k">-&gt;</text><text x="24.048" y="3.841" class="l">primeChecker</text><text x="36.072" y="3.841" class="j">)</text><use xlink:href="#1" y="4.342"/><text y="8.183" class="f">Date:</text><text x="8.016" y="8.183" class="f">Sat</text><text x="12.024" y="8.183" class="f">Oct</text><text x="16.032" y="8.183" class="f">17</text><text x="19.038" y="8.183" class="f">01:57:17</text><text x="28.056" y="8.183" class="f">2020</text><text x="33.066" y="8.183" class="f">+0000</text><text x="4.008" y="12.525" class="f">Finished</text><text x="13.026" y="12.525" class="f">the</text><text x="17.034" y="12.525" class="f">Prime</text><text x="23.046" y="12.525" class="f">Checker</text><text x="31.062" y="12.525" class="f">Algorithm</text><text x="4.008" y="16.867" class="f">This</text><text x="9.018" y="16.867" class="f">concludes</text><text x="19.038" y="16.867" class="f">our</text><text x="23.046" y="16.867" class="f">work</text><text x="28.056" y="16.867" class="f">on</text><text x="31.062" y="16.867" class="f">this</text><text x="36.072" y="16.867" class="f">feature</text><text x="44.088" y="16.867" class="f">branch.</text><text x="52.104" y="16.867" class="f">Now</text><text x="56.112" y="16.867" class="f">it&apos;s</text><text x="61.122" y="16.867" class="f">time</text><text x="66.132" y="16.867" class="f">to</text><text x="4.008" y="19.038" class="f">integrate</text><text x="14.028" y="19.038" class="f">our</text><text x="18.036" y="19.038" class="f">changes</text><text x="26.052" y="19.038" class="f">into</text><text x="31.062" y="19.038" class="f">the</text><text x="35.07" y="19.038" class="f">&quot;master&quot;</text><text x="44.088" y="19.038" class="f">branch.</text><text y="23.38" class="j">commit</text><text x="7.014" y="23.38" class="j">efe5426</text><use xlink:href="#1" y="23.881"/><text y="27.722" class="f">Date:</text><text x="8.016" y="27.722" class="f">Sat</text><text x="12.024" y="27.722" class="f">Oct</text><text x="16.032" y="27.722" class="f">17</text><text x="19.038" y="27.722" class="f">01:37:24</text><text x="28.056" y="27.722" class="f">2020</text><text x="33.066" y="27.722" class="f">+0000</text><text x="4.008" y="32.064" class="f">Added</text><text x="10.02" y="32.064" class="f">Prime</text><text x="16.032" y="32.064" class="f">Checker</text><text x="24.048" y="32.064" class="f">Algorithm</text><text y="36.406" class="j">commit</text><text x="7.014" y="36.406" class="j">1494dfc</text><text x="15.03" y="36.406" class="j">(</text><text x="16.032" y="36.406" class="m">origin/primeChecker</text><text x="35.07" y="36.406" class="j">,</text><text x="37.074" y="36.406" class="m">origin/master</text><text x="50.1" y="36.406" class="j">,</text><text x="52.104" y="36.406" class="l">master</text><text x="58.116" y="36.406" class="j">)</text><use xlink:href="#1" y="36.907"/><text y="40.748" class="f">Date:</text><text x="8.016" y="40.748" class="f">Sat</text><text x="12.024" y="40.748" class="f">Oct</text><text x="16.032" y="40.748" class="f">3</text><text x="18.036" y="40.748" class="f">03:56:09</text><text x="27.054" y="40.748" class="f">2020</text><text x="32.064" y="40.748" class="f">+0000</text><text x="4.008" y="45.09" class="f">This</text><text x="9.018" y="45.09" class="f">is</text><text x="12.024" y="45.09" class="f">the</text><text x="16.032" y="45.09" class="f">third</text><text x="22.044" y="45.09" class="f">commit</text><text x="29.058" y="45.09" class="f">on</text><text x="32.064" y="45.09" class="f">our</text><text x="36.072" y="45.09" class="f">master</text><text x="43.086" y="45.09" class="f">branch</text><text x="4.008" y="49.432" class="f">This</text><text x="9.018" y="49.432" class="f">concludes</text><text x="19.038" y="49.432" class="f">our</text><text x="23.046" y="49.432" class="f">journey</text><text x="31.062" y="49.432" class="f">through</text><text x="39.078" y="49.432" class="f">the</text><text x="43.086" y="49.432" class="f">Git</text><text x="47.094" y="49.432" class="f">Basics</text><text x="54.108" y="49.432" class="f">guide.</text><text x="61.122" y="49.432" class="f">We</text><text x="64.128" y="49.432" class="f">will</text><text x="4.008" y="51.603" class="f">continue</text><text x="13.026" y="51.603" class="f">with</text><text x="18.036" y="51.603" class="f">this</text><text x="23.046" y="51.603" class="f">example</text><text x="31.062" y="51.603" class="f">project</text><text x="39.078" y="51.603" class="f">in</text><text x="42.084" y="51.603" class="f">our</text><text x="46.092" y="51.603" class="f">next</text><text x="51.102" y="51.603" class="f">guide:</text><text x="58.116" y="51.603" class="f">Git</text><text x="62.124" y="51.603" class="f">Intermediate</text><text y="53.774" class="i">[alice@git-demo]</text><text x="17.034" y="53.774" class="i">/myProject:</text></svg></svg></g></svg></svg>