<svg xmlns="http://www.w3.org/2000/svg" xmlns:xlink="http://www.w3.org/1999/xlink" width="840" height="298.81"><rect width="840" height="298.81" rx="5" ry="5" class="a"/><svg y="0%" x="0%"><circle cx="20" cy="20" r="6" fill="#ff5f58"/><circle cx="40" cy="20" r="6" fill="#ffbd2e"/><circle cx="60" cy="20" r="6" fill="#18c132"/></svg><svg height="238.81" viewBox="0 0 80 23.881" width="800" x="15" xmlns="http://www.w3.org/2000/svg" xmlns:xlink="http://www.w3.org/1999/xlink" y="50"><style>.a{fill:#282d35}.h{font-weight:700}.h,.i,.j,.k{fill:#b9c0cb;white-space:pre}.j,.k{fill:#dbab79}.k{fill:#66c2cd;font-weight:700}</style><g font-family="Monaco,Consolas,Menlo,'Bitstream Vera Sans Mono','Powerline Symbols',monospace" font-size="1.67"><defs><symbol id="a"><path fill="transparent" d="M0 0h80v12H0z"/></symbol><symbol id="b"><path fill="#6f7683" d="M0 0h1.102v2.171H0z"/></symbol></defs><path class="a" d="M0 0h80v23.881H0z"/><svg width="80"><svg><use xlink:href="#a"/><use xlink:href="#b" x="27.996" y="19.514"/><text y="1.67" class="h">[root@git-demo]</text><text x="16.032" y="1.67" class="h">/myProject:</text><text x="28.056" y="1.67" class="i">git</text><text x="32.064" y="1.67" class="i">log</text><text y="3.841" class="j">commit</text><text x="7.014" y="3.841" class="j">e55312e8593f1bdd41cb3f5ec0f940cbef0ab8f3</text><text x="48.096" y="3.841" class="j">(</text><text x="49.098" y="3.841" class="k">HEAD</text><text x="54.108" y="3.841" class="k">-&gt;</text><text x="57.114" y="3.841" style="white-space:pre" fill="#a8cc8c" font-weight="700">master</text><text x="63.126" y="3.841" class="j">)</text><text y="6.012" class="i">Author:</text><text x="8.016" y="6.012" class="i">Buckley</text><text x="16.032" y="6.012" class="i">Ross</text><text x="21.042" y="6.012" class="i">&lt;brr322@lehigh.edu&gt;</text><text y="8.183" class="i">Date:</text><text x="8.016" y="8.183" class="i">Fri</text><text x="12.024" y="8.183" class="i">Oct</text><text x="16.032" y="8.183" class="i">2</text><text x="18.036" y="8.183" class="i">01:09:53</text><text x="27.054" y="8.183" class="i">2020</text><text x="32.064" y="8.183" class="i">+0000</text><text x="4.008" y="12.525" class="i">This</text><text x="9.018" y="12.525" class="i">is</text><text x="12.024" y="12.525" class="i">our</text><text x="16.032" y="12.525" class="i">first</text><text x="22.044" y="12.525" class="i">commit</text><text x="4.008" y="16.867" class="i">You</text><text x="8.016" y="16.867" class="i">can</text><text x="12.024" y="16.867" class="i">optionally</text><text x="23.046" y="16.867" class="i">add</text><text x="27.054" y="16.867" class="i">a</text><text x="29.058" y="16.867" class="i">more</text><text x="34.068" y="16.867" class="i">detailed</text><text x="43.086" y="16.867" class="i">description</text><text x="55.11" y="16.867" class="i">here,</text><text x="61.122" y="16.867" class="i">as</text><text x="64.128" y="16.867" class="i">long</text><text x="69.138" y="16.867" class="i">as</text><text x="72.144" y="16.867" class="i">you</text><text x="4.008" y="19.038" class="i">leave</text><text x="10.02" y="19.038" class="i">a</text><text x="12.024" y="19.038" class="i">blank</text><text x="18.036" y="19.038" class="i">line</text><text x="23.046" y="19.038" class="i">after</text><text x="29.058" y="19.038" class="i">the</text><text x="33.066" y="19.038" class="i">title.</text><text y="21.209" class="h">[root@git-demo]</text><text x="16.032" y="21.209" class="h">/myProject:</text></svg></svg></g></svg></svg>