<svg xmlns="http://www.w3.org/2000/svg" xmlns:xlink="http://www.w3.org/1999/xlink" width="840" height="342.23"><rect width="840" height="342.23" rx="5" ry="5" class="a"/><svg y="0%" x="0%"><circle cx="20" cy="20" r="6" fill="#ff5f58"/><circle cx="40" cy="20" r="6" fill="#ffbd2e"/><circle cx="60" cy="20" r="6" fill="#18c132"/></svg><svg height="282.23" viewBox="0 0 80 28.223" width="800" x="15" xmlns="http://www.w3.org/2000/svg" xmlns:xlink="http://www.w3.org/1999/xlink" y="50"><style>.a{fill:#282d35}.h{font-weight:700}.h,.i{fill:#b9c0cb;white-space:pre}</style><g font-family="Monaco,Consolas,Menlo,'Bitstream Vera Sans Mono','Powerline Symbols',monospace" font-size="1.67"><defs><symbol id="a"><path fill="transparent" d="M0 0h80v14H0z"/></symbol><symbol id="b"><path fill="#6f7683" d="M0 0h1.102v2.171H0z"/></symbol></defs><path class="a" d="M0 0h80v28.223H0z"/><svg width="80"><svg><use xlink:href="#a"/><use xlink:href="#b" x="26.996" y="23.856"/><text y="1.67" class="h">[root@git-demo]</text><text x="16.032" y="1.67" class="h">/myProject:</text><text x="28.056" y="1.67" class="i">cd</text><text x="31.062" y="1.67" class="i">../git-demo</text><text y="3.841" class="h">[root@git-demo]</text><text x="16.032" y="3.841" class="h">/git-demo:</text><text x="27.054" y="3.841" class="i">ls</text><text x="30.06" y="3.841" class="i">-1A</text><text y="6.012" style="white-space:pre" fill="#71bef2" font-weight="700">.git</text><text x="4.008" y="6.012" class="i">/</text><text y="8.183" class="h">[root@git-demo]</text><text x="16.032" y="8.183" class="h">/git-demo:</text><text x="27.054" y="8.183" class="i">git</text><text x="31.062" y="8.183" class="i">status</text><text y="10.354" class="i">On</text><text x="3.006" y="10.354" class="i">branch</text><text x="10.02" y="10.354" class="i">master</text><text y="14.696" class="i">No</text><text x="3.006" y="14.696" class="i">commits</text><text x="11.022" y="14.696" class="i">yet</text><text y="19.038" class="i">nothing</text><text x="8.016" y="19.038" class="i">to</text><text x="11.022" y="19.038" class="i">commit</text><text x="18.036" y="19.038" class="i">(create/copy</text><text x="31.062" y="19.038" class="i">files</text><text x="37.074" y="19.038" class="i">and</text><text x="41.082" y="19.038" class="i">use</text><text x="45.09" y="19.038" class="i">&quot;git</text><text x="50.1" y="19.038" class="i">add&quot;</text><text x="55.11" y="19.038" class="i">to</text><text x="58.116" y="19.038" class="i">track)</text><text y="21.209" class="h">[root@git-demo]</text><text x="16.032" y="21.209" class="h">/git-demo:</text><text x="27.054" y="21.209" class="i">git</text><text x="31.062" y="21.209" class="i">log</text><text y="23.38" class="i">fatal:</text><text x="7.014" y="23.38" class="i">your</text><text x="12.024" y="23.38" class="i">current</text><text x="20.04" y="23.38" class="i">branch</text><text x="27.054" y="23.38" class="i">&apos;master&apos;</text><text x="36.072" y="23.38" class="i">does</text><text x="41.082" y="23.38" class="i">not</text><text x="45.09" y="23.38" class="i">have</text><text x="50.1" y="23.38" class="i">any</text><text x="54.108" y="23.38" class="i">commits</text><text x="62.124" y="23.38" class="i">yet</text><text y="25.551" class="h">[root@git-demo]</text><text x="16.032" y="25.551" class="h">/git-demo:</text></svg></svg></g></svg></svg>