<svg xmlns="http://www.w3.org/2000/svg" xmlns:xlink="http://www.w3.org/1999/xlink" width="840" height="429.07"><rect width="840" height="429.07" rx="5" ry="5" class="a"/><svg y="0%" x="0%"><circle cx="20" cy="20" r="6" fill="#ff5f58"/><circle cx="40" cy="20" r="6" fill="#ffbd2e"/><circle cx="60" cy="20" r="6" fill="#18c132"/></svg><svg height="369.07" viewBox="0 0 80 36.907" width="800" x="15" xmlns="http://www.w3.org/2000/svg" xmlns:xlink="http://www.w3.org/1999/xlink" y="50"><style>.a{fill:#282d35}.f{fill:#b9c0cb}.f,.i,.j,.k{white-space:pre}.i{fill:#b9c0cb;font-weight:700}.j,.k{fill:#dbab79}.k{fill:#66c2cd;font-weight:700}</style><g font-family="Monaco,Consolas,Menlo,'Bitstream Vera Sans Mono','Powerline Symbols',monospace" font-size="1.67"><defs><symbol id="1"><text y="1.67" class="f">Author:</text><text x="8.016" y="1.67" class="f">Buckley</text><text x="16.032" y="1.67" class="f">Ross</text><text x="21.042" y="1.67" class="f">&lt;brr322@lehigh.edu&gt;</text></symbol><symbol id="a"><path fill="transparent" d="M0 0h80v18H0z"/></symbol><symbol id="b"><path fill="#6f7683" d="M0 0h1.102v2.171H0z"/></symbol></defs><path class="a" d="M0 0h80v36.907H0z"/><svg width="80"><svg><use xlink:href="#a"/><use xlink:href="#b" x="27.996" y="32.54"/><text y="1.67" class="i">[root@git-demo]</text><text x="16.032" y="1.67" class="i">/myProject:</text><text x="28.056" y="1.67" class="f">git</text><text x="32.064" y="1.67" class="f">log</text><text y="3.841" class="j">commit</text><text x="7.014" y="3.841" class="j">7ff868e6307080fd83a1d78153df4cb073d961f6</text><text x="48.096" y="3.841" class="j">(</text><text x="49.098" y="3.841" class="k">HEAD</text><text x="54.108" y="3.841" class="k">-&gt;</text><text x="57.114" y="3.841" style="white-space:pre" fill="#a8cc8c" font-weight="700">master</text><text x="63.126" y="3.841" class="j">)</text><use xlink:href="#1" y="4.342"/><text y="8.183" class="f">Date:</text><text x="8.016" y="8.183" class="f">Sat</text><text x="12.024" y="8.183" class="f">Oct</text><text x="16.032" y="8.183" class="f">3</text><text x="18.036" y="8.183" class="f">01:03:39</text><text x="27.054" y="8.183" class="f">2020</text><text x="32.064" y="8.183" class="f">+0000</text><text x="4.008" y="12.525" class="f">This</text><text x="9.018" y="12.525" class="f">is</text><text x="12.024" y="12.525" class="f">our</text><text x="16.032" y="12.525" class="f">second</text><text x="23.046" y="12.525" class="f">commit</text><text y="16.867" class="j">commit</text><text x="7.014" y="16.867" class="j">e55312e8593f1bdd41cb3f5ec0f940cbef0ab8f3</text><use xlink:href="#1" y="17.368"/><text y="21.209" class="f">Date:</text><text x="8.016" y="21.209" class="f">Fri</text><text x="12.024" y="21.209" class="f">Oct</text><text x="16.032" y="21.209" class="f">2</text><text x="18.036" y="21.209" class="f">01:09:53</text><text x="27.054" y="21.209" class="f">2020</text><text x="32.064" y="21.209" class="f">+0000</text><text x="4.008" y="25.551" class="f">This</text><text x="9.018" y="25.551" class="f">is</text><text x="12.024" y="25.551" class="f">our</text><text x="16.032" y="25.551" class="f">first</text><text x="22.044" y="25.551" class="f">commit</text><text x="4.008" y="29.893" class="f">You</text><text x="8.016" y="29.893" class="f">can</text><text x="12.024" y="29.893" class="f">optionally</text><text x="23.046" y="29.893" class="f">add</text><text x="27.054" y="29.893" class="f">a</text><text x="29.058" y="29.893" class="f">more</text><text x="34.068" y="29.893" class="f">detailed</text><text x="43.086" y="29.893" class="f">description</text><text x="55.11" y="29.893" class="f">here,</text><text x="61.122" y="29.893" class="f">as</text><text x="64.128" y="29.893" class="f">long</text><text x="69.138" y="29.893" class="f">as</text><text x="72.144" y="29.893" class="f">you</text><text x="4.008" y="32.064" class="f">leave</text><text x="10.02" y="32.064" class="f">a</text><text x="12.024" y="32.064" class="f">blank</text><text x="18.036" y="32.064" class="f">line</text><text x="23.046" y="32.064" class="f">after</text><text x="29.058" y="32.064" class="f">the</text><text x="33.066" y="32.064" class="f">title.</text><text y="34.235" class="i">[root@git-demo]</text><text x="16.032" y="34.235" class="i">/myProject:</text></svg></svg></g></svg></svg>