<svg xmlns="http://www.w3.org/2000/svg" xmlns:xlink="http://www.w3.org/1999/xlink" width="840" height="537.62"><rect width="840" height="537.62" rx="5" ry="5" class="a"/><svg y="0%" x="0%"><circle cx="20" cy="20" r="6" fill="#ff5f58"/><circle cx="40" cy="20" r="6" fill="#ffbd2e"/><circle cx="60" cy="20" r="6" fill="#18c132"/></svg><svg height="477.62" viewBox="0 0 80 47.762" width="800" x="15" xmlns="http://www.w3.org/2000/svg" xmlns:xlink="http://www.w3.org/1999/xlink" y="50"><style>.a{fill:#282d35}.i,.j{fill:#b9c0cb;white-space:pre}.j{fill:#b9bfca;text-decoration:underline}.k,.l,.m,.n,.o{fill:#dbab79;white-space:pre}.l,.m,.n,.o{fill:#d290e4}.m,.n,.o{fill:#66c2cd}.n,.o{fill:#e88388}.o{fill:#73bef3;text-decoration:underline}</style><g font-family="Monaco,Consolas,Menlo,'Bitstream Vera Sans Mono','Powerline Symbols',monospace" font-size="1.67"><defs><symbol id="a"><path fill="transparent" d="M0 0h80v23H0z"/></symbol><symbol id="b"><path fill="#6f7683" d="M0 0h1.102v2.171H0z"/></symbol></defs><path class="a" d="M0 0h80v47.762H0z"/><svg width="80"><svg><use xlink:href="#a"/><use xlink:href="#b" x="5.996"/><text x="2.004" y="1.67" style="white-space:pre" fill="#af5f00">1</text><text x="6.012" y="1.67" class="i">&lt;&lt;&lt;&lt;&lt;&lt;&lt;</text><text x="14.028" y="1.67" class="j">HEAD</text><text x="4.008" y="3.841" class="k">1</text><text x="6.012" y="3.841" class="l">from</text><text x="11.022" y="3.841" class="i">primeChecker</text><text x="24.048" y="3.841" class="l">import</text><text x="31.062" y="3.841" class="i">checkPrime</text><text x="4.008" y="6.012" class="k">2</text><text x="4.008" y="8.183" class="k">3</text><text x="6.012" y="8.183" class="i">|||||||</text><text x="14.028" y="8.183" class="i">1494dfc</text><text x="4.008" y="10.354" class="k">4</text><text x="6.012" y="10.354" class="i">=======</text><text x="4.008" y="12.525" class="k">5</text><text x="6.012" y="12.525" class="l">import</text><text x="13.026" y="12.525" class="i">fibonacci</text><text x="4.008" y="14.696" class="k">6</text><text x="4.008" y="16.867" class="k">7</text><text x="6.012" y="16.867" class="i">&gt;&gt;&gt;&gt;&gt;&gt;&gt;</text><text x="14.028" y="16.867" class="i">fibonacci</text><text x="4.008" y="19.038" class="k">8</text><text x="6.012" y="19.038" class="k">def</text><text x="10.02" y="19.038" class="m">main</text><text x="14.028" y="19.038" class="i">():</text><text x="4.008" y="21.209" class="k">9</text><text x="6.012" y="21.209" class="i">&lt;&lt;&lt;&lt;&lt;&lt;&lt;</text><text x="14.028" y="21.209" class="j">HEAD</text><text x="3.006" y="23.38" class="k">10</text><text x="10.02" y="23.38" class="m">print</text><text x="15.03" y="23.38" class="i">(</text><text x="16.032" y="23.38" class="n">&apos;43</text><text x="20.04" y="23.38" class="n">is</text><text x="23.046" y="23.38" class="n">{}&apos;</text><text x="26.052" y="23.38" class="i">.format(</text><text x="34.068" y="23.38" class="n">&apos;prime&apos;</text><text x="42.084" y="23.38" class="k">if</text><text x="45.09" y="23.38" class="i">checkPrime(</text><text x="56.112" y="23.38" class="n">43</text><text x="58.116" y="23.38" class="i">)</text><text x="60.12" y="23.38" class="k">else</text><text x="65.13" y="23.38" class="n">&apos;not</text><text x="70.14" y="23.38" class="n">prime&apos;</text><text x="76.152" y="23.38" class="i">))</text><text x="3.006" y="25.551" class="k">11</text><text x="10.02" y="25.551" class="m">print</text><text x="15.03" y="25.551" class="i">(</text><text x="16.032" y="25.551" class="n">&apos;55</text><text x="20.04" y="25.551" class="n">is</text><text x="23.046" y="25.551" class="n">{}&apos;</text><text x="26.052" y="25.551" class="i">.format(</text><text x="34.068" y="25.551" class="n">&apos;prime&apos;</text><text x="42.084" y="25.551" class="k">if</text><text x="45.09" y="25.551" class="i">checkPrime(</text><text x="56.112" y="25.551" class="n">55</text><text x="58.116" y="25.551" class="i">)</text><text x="60.12" y="25.551" class="k">else</text><text x="65.13" y="25.551" class="n">&apos;not</text><text x="70.14" y="25.551" class="n">prime&apos;</text><text x="76.152" y="25.551" class="i">))</text><text x="3.006" y="27.722" class="k">12</text><text x="6.012" y="27.722" class="i">|||||||</text><text x="14.028" y="27.722" class="i">1494dfc</text><text x="3.006" y="29.893" class="k">13</text><text x="10.02" y="29.893" class="m">print</text><text x="15.03" y="29.893" class="i">(</text><text x="16.032" y="29.893" class="n">&apos;Hello,</text><text x="24.048" y="29.893" class="n">git!&apos;</text><text x="29.058" y="29.893" class="i">)</text><text x="3.006" y="32.064" class="k">14</text><text x="6.012" y="32.064" class="i">=======</text><text x="3.006" y="34.235" class="k">15</text><text x="10.02" y="34.235" class="m">print</text><text x="15.03" y="34.235" class="i">(</text><text x="16.032" y="34.235" class="n">&apos;The</text><text x="21.042" y="34.235" class="n">10th</text><text x="26.052" y="34.235" class="n">term</text><text x="31.062" y="34.235" class="n">in</text><text x="34.068" y="34.235" class="n">the</text><text x="38.076" y="34.235" class="o">fibonacci</text><text x="48.096" y="34.235" class="n">sequence</text><text x="57.114" y="34.235" class="n">is</text><text x="60.12" y="34.235" class="n">{}&apos;</text><text x="63.126" y="34.235" class="i">.format(fibonacci</text><text x="3.006" y="36.406" class="k">16</text><text x="10.02" y="36.406" class="m">print</text><text x="15.03" y="36.406" class="i">(</text><text x="16.032" y="36.406" class="n">&apos;The</text><text x="21.042" y="36.406" class="n">50th</text><text x="26.052" y="36.406" class="n">term</text><text x="31.062" y="36.406" class="n">in</text><text x="34.068" y="36.406" class="n">the</text><text x="38.076" y="36.406" class="o">fibonacci</text><text x="48.096" y="36.406" class="n">sequence</text><text x="57.114" y="36.406" class="n">is</text><text x="60.12" y="36.406" class="n">{}&apos;</text><text x="63.126" y="36.406" class="i">.format(fibonacci</text><text x="3.006" y="38.577" class="k">17</text><text x="6.012" y="38.577" class="i">&gt;&gt;&gt;&gt;&gt;&gt;&gt;</text><text x="14.028" y="38.577" class="i">fibonacci</text><text x="3.006" y="40.748" class="k">18</text><text x="3.006" y="42.919" class="k">19</text><text x="6.012" y="42.919" class="i">main()</text><path fill="#b9c0cb" d="M0 43.42h80v2.171H0z"/><text y="45.09" style="white-space:pre" fill="#282d35" font-weight="700">buf:&lt;le:first.py (python)(2020-10-18 06:41:01)wc:59 lc:21 char:0x3C pos:1,1(Top)</text><text y="47.261" class="i">&quot;first.py&quot;</text><text x="11.022" y="47.261" class="i">21L,</text><text x="16.032" y="47.261" class="i">520C</text><text x="69.138" y="47.261" class="i">z</text></svg></svg></g></svg></svg>