<svg xmlns="http://www.w3.org/2000/svg" xmlns:xlink="http://www.w3.org/1999/xlink" width="840" height="515.91"><rect width="840" height="515.91" rx="5" ry="5" class="a"/><svg y="0%" x="0%"><circle cx="20" cy="20" r="6" fill="#ff5f58"/><circle cx="40" cy="20" r="6" fill="#ffbd2e"/><circle cx="60" cy="20" r="6" fill="#18c132"/></svg><svg height="455.91" viewBox="0 0 80 45.591" width="800" x="15" xmlns="http://www.w3.org/2000/svg" xmlns:xlink="http://www.w3.org/1999/xlink" y="50"><style>.a{fill:#282d35}.h{font-weight:700}.h,.i,.j,.k{fill:#b9c0cb;white-space:pre}.j,.k{fill:#a8cc8c}.k{fill:#e88388}</style><g font-family="Monaco,Consolas,Menlo,'Bitstream Vera Sans Mono','Powerline Symbols',monospace" font-size="1.67"><defs><symbol id="a"><path fill="transparent" d="M0 0h80v22H0z"/></symbol><symbol id="b"><path fill="#6f7683" d="M0 0h1.102v2.171H0z"/></symbol></defs><path class="a" d="M0 0h80v45.591H0z"/><svg width="80"><svg><use xlink:href="#a"/><use xlink:href="#b" x="25.996" y="41.224"/><text y="1.67" class="h">[bob@git-demo]</text><text x="15.03" y="1.67" class="h">/git-demo:</text><text x="26.052" y="1.67" class="i">git</text><text x="30.06" y="1.67" class="i">merge</text><text x="36.072" y="1.67" class="i">fibonacci</text><text y="3.841" class="i">Auto-merging</text><text x="13.026" y="3.841" class="i">first.py</text><text y="6.012" class="i">CONFLICT</text><text x="9.018" y="6.012" class="i">(content):</text><text x="20.04" y="6.012" class="i">Merge</text><text x="26.052" y="6.012" class="i">conflict</text><text x="35.07" y="6.012" class="i">in</text><text x="38.076" y="6.012" class="i">first.py</text><text y="8.183" class="i">Automatic</text><text x="10.02" y="8.183" class="i">merge</text><text x="16.032" y="8.183" class="i">failed;</text><text x="24.048" y="8.183" class="i">fix</text><text x="28.056" y="8.183" class="i">conflicts</text><text x="38.076" y="8.183" class="i">and</text><text x="42.084" y="8.183" class="i">then</text><text x="47.094" y="8.183" class="i">commit</text><text x="54.108" y="8.183" class="i">the</text><text x="58.116" y="8.183" class="i">result.</text><text y="10.354" class="h">[bob@git-demo]</text><text x="15.03" y="10.354" class="h">/git-demo:</text><text x="26.052" y="10.354" class="i">git</text><text x="30.06" y="10.354" class="i">status</text><text y="12.525" class="i">On</text><text x="3.006" y="12.525" class="i">branch</text><text x="10.02" y="12.525" class="i">master</text><text y="14.696" class="i">Your</text><text x="5.01" y="14.696" class="i">branch</text><text x="12.024" y="14.696" class="i">is</text><text x="15.03" y="14.696" class="i">up</text><text x="18.036" y="14.696" class="i">to</text><text x="21.042" y="14.696" class="i">date</text><text x="26.052" y="14.696" class="i">with</text><text x="31.062" y="14.696" class="i">&apos;origin/master&apos;.</text><text y="19.038" class="i">You</text><text x="4.008" y="19.038" class="i">have</text><text x="9.018" y="19.038" class="i">unmerged</text><text x="18.036" y="19.038" class="i">paths.</text><text x="2.004" y="21.209" class="i">(fix</text><text x="7.014" y="21.209" class="i">conflicts</text><text x="17.034" y="21.209" class="i">and</text><text x="21.042" y="21.209" class="i">run</text><text x="25.05" y="21.209" class="i">&quot;git</text><text x="30.06" y="21.209" class="i">commit&quot;)</text><text x="2.004" y="23.38" class="i">(use</text><text x="7.014" y="23.38" class="i">&quot;git</text><text x="12.024" y="23.38" class="i">merge</text><text x="18.036" y="23.38" class="i">--abort&quot;</text><text x="27.054" y="23.38" class="i">to</text><text x="30.06" y="23.38" class="i">abort</text><text x="36.072" y="23.38" class="i">the</text><text x="40.08" y="23.38" class="i">merge)</text><text y="27.722" class="i">Changes</text><text x="8.016" y="27.722" class="i">to</text><text x="11.022" y="27.722" class="i">be</text><text x="14.028" y="27.722" class="i">committed:</text><text x="8.016" y="29.893" class="j">new</text><text x="12.024" y="29.893" class="j">file:</text><text x="20.04" y="29.893" class="j">fibonacci.py</text><text y="34.235" class="i">Unmerged</text><text x="9.018" y="34.235" class="i">paths:</text><text x="2.004" y="36.406" class="i">(use</text><text x="7.014" y="36.406" class="i">&quot;git</text><text x="12.024" y="36.406" class="i">add</text><text x="16.032" y="36.406" class="i">&lt;file&gt;...&quot;</text><text x="27.054" y="36.406" class="i">to</text><text x="30.06" y="36.406" class="i">mark</text><text x="35.07" y="36.406" class="i">resolution)</text><text x="8.016" y="38.577" class="k">both</text><text x="13.026" y="38.577" class="k">modified:</text><text x="25.05" y="38.577" class="k">first.py</text><text y="42.919" class="h">[bob@git-demo]</text><text x="15.03" y="42.919" class="h">/git-demo:</text></svg></svg></g></svg></svg>