<svg xmlns="http://www.w3.org/2000/svg" xmlns:xlink="http://www.w3.org/1999/xlink" width="840" height="429.07"><rect width="840" height="429.07" rx="5" ry="5" class="a"/><svg y="0%" x="0%"><circle cx="20" cy="20" r="6" fill="#ff5f58"/><circle cx="40" cy="20" r="6" fill="#ffbd2e"/><circle cx="60" cy="20" r="6" fill="#18c132"/></svg><svg height="369.07" viewBox="0 0 80 36.907" width="800" x="15" xmlns="http://www.w3.org/2000/svg" xmlns:xlink="http://www.w3.org/1999/xlink" y="50"><style>.a{fill:#282d35}.h{font-weight:700}.h,.i{fill:#b9c0cb;white-space:pre}</style><g font-family="Monaco,Consolas,Menlo,'Bitstream Vera Sans Mono','Powerline Symbols',monospace" font-size="1.67"><defs><symbol id="a"><path fill="transparent" d="M0 0h80v18H0z"/></symbol><symbol id="b"><path fill="#6f7683" d="M0 0h1.102v2.171H0z"/></symbol></defs><path class="a" d="M0 0h80v36.907H0z"/><svg width="80"><svg><use xlink:href="#a"/><use xlink:href="#b" x="27.996" y="32.54"/><text y="1.67" class="h">[root@git-demo]</text><text x="16.032" y="1.67" class="h">/myProject:</text><text x="28.056" y="1.67" class="i">git</text><text x="32.064" y="1.67" class="i">push</text><text x="37.074" y="1.67" class="i">--set-upstream</text><text x="52.104" y="1.67" class="i">origin</text><text x="59.118" y="1.67" class="i">master</text><text y="3.841" class="i">Enumerating</text><text x="12.024" y="3.841" class="i">objects:</text><text x="21.042" y="3.841" class="i">9,</text><text x="24.048" y="3.841" class="i">done.</text><text y="6.012" class="i">Counting</text><text x="9.018" y="6.012" class="i">objects:</text><text x="18.036" y="6.012" class="i">100%</text><text x="23.046" y="6.012" class="i">(9/9),</text><text x="30.06" y="6.012" class="i">done.</text><text y="8.183" class="i">Delta</text><text x="6.012" y="8.183" class="i">compression</text><text x="18.036" y="8.183" class="i">using</text><text x="24.048" y="8.183" class="i">up</text><text x="27.054" y="8.183" class="i">to</text><text x="30.06" y="8.183" class="i">2</text><text x="32.064" y="8.183" class="i">threads</text><text y="10.354" class="i">Compressing</text><text x="12.024" y="10.354" class="i">objects:</text><text x="21.042" y="10.354" class="i">100%</text><text x="26.052" y="10.354" class="i">(7/7),</text><text x="33.066" y="10.354" class="i">done.</text><text y="12.525" class="i">Writing</text><text x="8.016" y="12.525" class="i">objects:</text><text x="17.034" y="12.525" class="i">100%</text><text x="22.044" y="12.525" class="i">(9/9),</text><text x="29.058" y="12.525" class="i">1.09</text><text x="34.068" y="12.525" class="i">KiB</text><text x="38.076" y="12.525" class="i">|</text><text x="40.08" y="12.525" class="i">280.00</text><text x="47.094" y="12.525" class="i">KiB/s,</text><text x="54.108" y="12.525" class="i">done.</text><text y="14.696" class="i">Total</text><text x="6.012" y="14.696" class="i">9</text><text x="8.016" y="14.696" class="i">(delta</text><text x="15.03" y="14.696" class="i">0),</text><text x="19.038" y="14.696" class="i">reused</text><text x="26.052" y="14.696" class="i">0</text><text x="28.056" y="14.696" class="i">(delta</text><text x="35.07" y="14.696" class="i">0),</text><text x="39.078" y="14.696" class="i">pack-reused</text><text x="51.102" y="14.696" class="i">0</text><text y="16.867" class="i">To</text><text x="3.006" y="16.867" class="i">github.com:buck-ross/git-demo.git</text><text x="1.002" y="19.038" class="i">*</text><text x="3.006" y="19.038" class="i">[new</text><text x="8.016" y="19.038" class="i">branch]</text><text x="21.042" y="19.038" class="i">master</text><text x="28.056" y="19.038" class="i">-&gt;</text><text x="31.062" y="19.038" class="i">master</text><text y="21.209" class="i">Branch</text><text x="7.014" y="21.209" class="i">&apos;master&apos;</text><text x="16.032" y="21.209" class="i">set</text><text x="20.04" y="21.209" class="i">up</text><text x="23.046" y="21.209" class="i">to</text><text x="26.052" y="21.209" class="i">track</text><text x="32.064" y="21.209" class="i">remote</text><text x="39.078" y="21.209" class="i">branch</text><text x="46.092" y="21.209" class="i">&apos;master&apos;</text><text x="55.11" y="21.209" class="i">from</text><text x="60.12" y="21.209" class="i">&apos;origin&apos;.</text><text y="23.38" class="h">[root@git-demo]</text><text x="16.032" y="23.38" class="h">/myProject:</text><text x="28.056" y="23.38" class="i">git</text><text x="32.064" y="23.38" class="i">status</text><text y="25.551" class="i">On</text><text x="3.006" y="25.551" class="i">branch</text><text x="10.02" y="25.551" class="i">master</text><text y="27.722" class="i">Your</text><text x="5.01" y="27.722" class="i">branch</text><text x="12.024" y="27.722" class="i">is</text><text x="15.03" y="27.722" class="i">up</text><text x="18.036" y="27.722" class="i">to</text><text x="21.042" y="27.722" class="i">date</text><text x="26.052" y="27.722" class="i">with</text><text x="31.062" y="27.722" class="i">&apos;origin/master&apos;.</text><text y="32.064" class="i">nothing</text><text x="8.016" y="32.064" class="i">to</text><text x="11.022" y="32.064" class="i">commit,</text><text x="19.038" y="32.064" class="i">working</text><text x="27.054" y="32.064" class="i">tree</text><text x="32.064" y="32.064" class="i">clean</text><text y="34.235" class="h">[root@git-demo]</text><text x="16.032" y="34.235" class="h">/myProject:</text></svg></svg></g></svg></svg>