<svg xmlns="http://www.w3.org/2000/svg" xmlns:xlink="http://www.w3.org/1999/xlink" width="830" height="298.81"><rect width="830" height="298.81" rx="5" ry="5" class="a"/><svg y="0%" x="0%"><circle cx="20" cy="20" r="6" fill="#ff5f58"/><circle cx="40" cy="20" r="6" fill="#ffbd2e"/><circle cx="60" cy="20" r="6" fill="#18c132"/></svg><svg height="238.81" viewBox="0 0 79 23.881" width="790" x="15" xmlns="http://www.w3.org/2000/svg" xmlns:xlink="http://www.w3.org/1999/xlink" y="50"><style>.a{fill:#282d35}.h{font-weight:700}.h,.i{fill:#b9c0cb;white-space:pre}</style><g font-family="Monaco,Consolas,Menlo,'Bitstream Vera Sans Mono','Powerline Symbols',monospace" font-size="1.67"><defs><symbol id="a"><path fill="transparent" d="M0 0h79v12H0z"/></symbol><symbol id="b"><path fill="#6f7683" d="M0 0h1.102v2.171H0z"/></symbol></defs><path class="a" d="M0 0h79v23.881H0z"/><svg width="79"><svg><use xlink:href="#a"/><use xlink:href="#b" x="25.996" y="19.514"/><text y="1.67" class="h">[bob@git-demo]</text><text x="15.03" y="1.67" class="h">/git-demo:</text><text x="26.052" y="1.67" class="i">git</text><text x="30.06" y="1.67" class="i">push</text><text y="3.841" class="i">Enumerating</text><text x="12.024" y="3.841" class="i">objects:</text><text x="21.042" y="3.841" class="i">7,</text><text x="24.048" y="3.841" class="i">done.</text><text y="6.012" class="i">Counting</text><text x="9.018" y="6.012" class="i">objects:</text><text x="18.036" y="6.012" class="i">100%</text><text x="23.046" y="6.012" class="i">(7/7),</text><text x="30.06" y="6.012" class="i">done.</text><text y="8.183" class="i">Delta</text><text x="6.012" y="8.183" class="i">compression</text><text x="18.036" y="8.183" class="i">using</text><text x="24.048" y="8.183" class="i">up</text><text x="27.054" y="8.183" class="i">to</text><text x="30.06" y="8.183" class="i">2</text><text x="32.064" y="8.183" class="i">threads</text><text y="10.354" class="i">Compressing</text><text x="12.024" y="10.354" class="i">objects:</text><text x="21.042" y="10.354" class="i">100%</text><text x="26.052" y="10.354" class="i">(3/3),</text><text x="33.066" y="10.354" class="i">done.</text><text y="12.525" class="i">Writing</text><text x="8.016" y="12.525" class="i">objects:</text><text x="17.034" y="12.525" class="i">100%</text><text x="22.044" y="12.525" class="i">(3/3),</text><text x="29.058" y="12.525" class="i">554</text><text x="33.066" y="12.525" class="i">bytes</text><text x="39.078" y="12.525" class="i">|</text><text x="41.082" y="12.525" class="i">277.00</text><text x="48.096" y="12.525" class="i">KiB/s,</text><text x="55.11" y="12.525" class="i">done.</text><text y="14.696" class="i">Total</text><text x="6.012" y="14.696" class="i">3</text><text x="8.016" y="14.696" class="i">(delta</text><text x="15.03" y="14.696" class="i">0),</text><text x="19.038" y="14.696" class="i">reused</text><text x="26.052" y="14.696" class="i">0</text><text x="28.056" y="14.696" class="i">(delta</text><text x="35.07" y="14.696" class="i">0),</text><text x="39.078" y="14.696" class="i">pack-reused</text><text x="51.102" y="14.696" class="i">0</text><text y="16.867" class="i">To</text><text x="3.006" y="16.867" class="i">github.com:buck-ross/git-demo.git</text><text x="3.006" y="19.038" class="i">1710a0a..8ca691d</text><text x="21.042" y="19.038" class="i">master</text><text x="28.056" y="19.038" class="i">-&gt;</text><text x="31.062" y="19.038" class="i">master</text><text y="21.209" class="h">[bob@git-demo]</text><text x="15.03" y="21.209" class="h">/git-demo:</text></svg></svg></g></svg></svg>