<svg xmlns="http://www.w3.org/2000/svg" xmlns:xlink="http://www.w3.org/1999/xlink" width="840" height="429.07"><rect width="840" height="429.07" rx="5" ry="5" class="a"/><svg y="0%" x="0%"><circle cx="20" cy="20" r="6" fill="#ff5f58"/><circle cx="40" cy="20" r="6" fill="#ffbd2e"/><circle cx="60" cy="20" r="6" fill="#18c132"/></svg><svg height="369.07" viewBox="0 0 80 36.907" width="800" x="15" xmlns="http://www.w3.org/2000/svg" xmlns:xlink="http://www.w3.org/1999/xlink" y="50"><style>.a{fill:#282d35}.f,.i{fill:#b9c0cb;white-space:pre}.i{font-weight:700}.j,.k,.l,.m{fill:#dbab79;white-space:pre}.k,.l,.m{fill:#66c2cd;font-weight:700}.l,.m{fill:#a8cc8c}.m{fill:#e88388}</style><g font-family="Monaco,Consolas,Menlo,'Bitstream Vera Sans Mono','Powerline Symbols',monospace" font-size="1.67"><defs><symbol id="1"><text y="1.67" class="f">remote:</text></symbol><symbol id="a"><path fill="transparent" d="M0 0h80v18H0z"/></symbol><symbol id="b"><path fill="#6f7683" d="M0 0h1.102v2.171H0z"/></symbol></defs><path class="a" d="M0 0h80v36.907H0z"/><svg width="80"><svg><use xlink:href="#a"/><use xlink:href="#b" x="28.996" y="32.54"/><text y="1.67" class="i">[alice@git-demo]</text><text x="17.034" y="1.67" class="i">/myProject:</text><text x="29.058" y="1.67" class="f">git</text><text x="33.066" y="1.67" class="f">push</text><text x="38.076" y="1.67" class="f">--set-upstream</text><text x="53.106" y="1.67" class="f">origin</text><text x="60.12" y="1.67" class="f">primeChecker</text><text y="3.841" class="f">Total</text><text x="6.012" y="3.841" class="f">0</text><text x="8.016" y="3.841" class="f">(delta</text><text x="15.03" y="3.841" class="f">0),</text><text x="19.038" y="3.841" class="f">reused</text><text x="26.052" y="3.841" class="f">0</text><text x="28.056" y="3.841" class="f">(delta</text><text x="35.07" y="3.841" class="f">0),</text><text x="39.078" y="3.841" class="f">pack-reused</text><text x="51.102" y="3.841" class="f">0</text><use xlink:href="#1" y="4.342"/><text y="8.183" class="f">remote:</text><text x="8.016" y="8.183" class="f">Create</text><text x="15.03" y="8.183" class="f">a</text><text x="17.034" y="8.183" class="f">pull</text><text x="22.044" y="8.183" class="f">request</text><text x="30.06" y="8.183" class="f">for</text><text x="34.068" y="8.183" class="f">&apos;primeChecker&apos;</text><text x="49.098" y="8.183" class="f">on</text><text x="52.104" y="8.183" class="f">GitHub</text><text x="59.118" y="8.183" class="f">by</text><text x="62.124" y="8.183" class="f">visiting:</text><text y="10.354" class="f">remote:</text><text x="13.026" y="10.354" class="f">https://github.com/buck-ross/git-demo/pull/new/primeChecker</text><use xlink:href="#1" y="10.855"/><text y="14.696" class="f">To</text><text x="3.006" y="14.696" class="f">github.com:buck-ross/git-demo.git</text><text x="1.002" y="16.867" class="f">*</text><text x="3.006" y="16.867" class="f">[new</text><text x="8.016" y="16.867" class="f">branch]</text><text x="21.042" y="16.867" class="f">primeChecker</text><text x="34.068" y="16.867" class="f">-&gt;</text><text x="37.074" y="16.867" class="f">primeChecker</text><text y="19.038" class="f">Branch</text><text x="7.014" y="19.038" class="f">&apos;primeChecker&apos;</text><text x="22.044" y="19.038" class="f">set</text><text x="26.052" y="19.038" class="f">up</text><text x="29.058" y="19.038" class="f">to</text><text x="32.064" y="19.038" class="f">track</text><text x="38.076" y="19.038" class="f">remote</text><text x="45.09" y="19.038" class="f">branch</text><text x="52.104" y="19.038" class="f">&apos;primeChecker&apos;</text><text x="67.134" y="19.038" class="f">from</text><text x="72.144" y="19.038" class="f">&apos;origin&apos;</text><text y="21.209" class="f">.</text><text y="23.38" class="i">[alice@git-demo]</text><text x="17.034" y="23.38" class="i">/myProject:</text><text x="29.058" y="23.38" class="f">git</text><text x="33.066" y="23.38" class="f">log</text><text x="37.074" y="23.38" class="f">--oneline</text><text y="25.551" class="j">1494dfc</text><text x="8.016" y="25.551" class="j">(</text><text x="9.018" y="25.551" class="k">HEAD</text><text x="14.028" y="25.551" class="k">-&gt;</text><text x="17.034" y="25.551" class="l">primeChecker</text><text x="29.058" y="25.551" class="j">,</text><text x="31.062" y="25.551" class="m">origin/primeChecker</text><text x="50.1" y="25.551" class="j">,</text><text x="52.104" y="25.551" class="m">origin/master</text><text x="65.13" y="25.551" class="j">,</text><text x="67.134" y="25.551" class="l">master</text><text x="73.146" y="25.551" class="j">)</text><text x="75.15" y="25.551" class="f">This</text><text y="27.722" class="f">is</text><text x="3.006" y="27.722" class="f">the</text><text x="7.014" y="27.722" class="f">third</text><text x="13.026" y="27.722" class="f">commit</text><text x="20.04" y="27.722" class="f">on</text><text x="23.046" y="27.722" class="f">our</text><text x="27.054" y="27.722" class="f">master</text><text x="34.068" y="27.722" class="f">branch</text><text y="29.893" class="j">7ff868e</text><text x="8.016" y="29.893" class="f">This</text><text x="13.026" y="29.893" class="f">is</text><text x="16.032" y="29.893" class="f">our</text><text x="20.04" y="29.893" class="f">second</text><text x="27.054" y="29.893" class="f">commit</text><text y="32.064" class="j">e55312e</text><text x="8.016" y="32.064" class="f">This</text><text x="13.026" y="32.064" class="f">is</text><text x="16.032" y="32.064" class="f">our</text><text x="20.04" y="32.064" class="f">first</text><text x="26.052" y="32.064" class="f">commit</text><text y="34.235" class="i">[alice@git-demo]</text><text x="17.034" y="34.235" class="i">/myProject:</text></svg></svg></g></svg></svg>