<svg xmlns="http://www.w3.org/2000/svg" xmlns:xlink="http://www.w3.org/1999/xlink" width="840" height="168.55"><rect width="840" height="168.55" rx="5" ry="5" class="a"/><svg y="0%" x="0%"><circle cx="20" cy="20" r="6" fill="#ff5f58"/><circle cx="40" cy="20" r="6" fill="#ffbd2e"/><circle cx="60" cy="20" r="6" fill="#18c132"/></svg><svg height="108.55" viewBox="0 0 80 10.855" width="800" x="15" xmlns="http://www.w3.org/2000/svg" xmlns:xlink="http://www.w3.org/1999/xlink" y="50"><style>.a{fill:#282d35}.h{font-weight:700}.h,.i{fill:#b9c0cb;white-space:pre}</style><g font-family="Monaco,Consolas,Menlo,'Bitstream Vera Sans Mono','Powerline Symbols',monospace" font-size="1.67"><defs><symbol id="a"><path fill="transparent" d="M0 0h80v6H0z"/></symbol><symbol id="b"><path fill="#6f7683" d="M0 0h1.102v2.171H0z"/></symbol></defs><path class="a" d="M0 0h80v10.855H0z"/><svg width="80"><svg><use xlink:href="#a"/><use xlink:href="#b" x="27.996" y="6.488"/><text y="1.67" class="h">[root@git-demo]</text><text x="16.032" y="1.67" class="h">/git-demo:</text><text x="27.054" y="1.67" class="i">cd</text><text x="30.06" y="1.67" class="i">../myProject</text><text y="3.841" class="h">[root@git-demo]</text><text x="16.032" y="3.841" class="h">/myProject:</text><text x="28.056" y="3.841" class="i">git</text><text x="32.064" y="3.841" class="i">remote</text><text x="39.078" y="3.841" class="i">add</text><text x="43.086" y="3.841" class="i">origin</text><text x="50.1" y="3.841" class="i">https://github.com/buck-ross/g</text><text y="6.012" class="i">it-demo.git</text><text y="8.183" class="h">[root@git-demo]</text><text x="16.032" y="8.183" class="h">/myProject:</text></svg></svg></g></svg></svg>