<svg xmlns="http://www.w3.org/2000/svg" xmlns:xlink="http://www.w3.org/1999/xlink" width="840" height="363.94"><rect width="840" height="363.94" rx="5" ry="5" class="a"/><svg y="0%" x="0%"><circle cx="20" cy="20" r="6" fill="#ff5f58"/><circle cx="40" cy="20" r="6" fill="#ffbd2e"/><circle cx="60" cy="20" r="6" fill="#18c132"/></svg><svg height="303.94" viewBox="0 0 80 30.394" width="800" x="15" xmlns="http://www.w3.org/2000/svg" xmlns:xlink="http://www.w3.org/1999/xlink" y="50"><style>.a{fill:#282d35}.h{font-weight:700}.h,.i,.j{fill:#b9c0cb;white-space:pre}.j{fill:#e88388}</style><g font-family="Monaco,Consolas,Menlo,'Bitstream Vera Sans Mono','Powerline Symbols',monospace" font-size="1.67"><defs><symbol id="a"><path fill="transparent" d="M0 0h80v15H0z"/></symbol><symbol id="b"><path fill="#6f7683" d="M0 0h1.102v2.171H0z"/></symbol></defs><path class="a" d="M0 0h80v30.394H0z"/><svg width="80"><svg><use xlink:href="#a"/><use xlink:href="#b" x="27.996" y="26.027"/><text y="1.67" class="h">[root@git-demo]</text><text x="16.032" y="1.67" class="h">/myProject:</text><text x="28.056" y="1.67" class="i">git</text><text x="32.064" y="1.67" class="i">status</text><text y="3.841" class="i">On</text><text x="3.006" y="3.841" class="i">branch</text><text x="10.02" y="3.841" class="i">master</text><text y="6.012" class="i">Changes</text><text x="8.016" y="6.012" class="i">not</text><text x="12.024" y="6.012" class="i">staged</text><text x="19.038" y="6.012" class="i">for</text><text x="23.046" y="6.012" class="i">commit:</text><text x="2.004" y="8.183" class="i">(use</text><text x="7.014" y="8.183" class="i">&quot;git</text><text x="12.024" y="8.183" class="i">add</text><text x="16.032" y="8.183" class="i">&lt;file&gt;...&quot;</text><text x="27.054" y="8.183" class="i">to</text><text x="30.06" y="8.183" class="i">update</text><text x="37.074" y="8.183" class="i">what</text><text x="42.084" y="8.183" class="i">will</text><text x="47.094" y="8.183" class="i">be</text><text x="50.1" y="8.183" class="i">committed)</text><text x="2.004" y="10.354" class="i">(use</text><text x="7.014" y="10.354" class="i">&quot;git</text><text x="12.024" y="10.354" class="i">restore</text><text x="20.04" y="10.354" class="i">&lt;file&gt;...&quot;</text><text x="31.062" y="10.354" class="i">to</text><text x="34.068" y="10.354" class="i">discard</text><text x="42.084" y="10.354" class="i">changes</text><text x="50.1" y="10.354" class="i">in</text><text x="53.106" y="10.354" class="i">working</text><text x="61.122" y="10.354" class="i">directory)</text><text x="8.016" y="12.525" class="j">modified:</text><text x="20.04" y="12.525" class="j">first.py</text><text y="16.867" class="i">Untracked</text><text x="10.02" y="16.867" class="i">files:</text><text x="2.004" y="19.038" class="i">(use</text><text x="7.014" y="19.038" class="i">&quot;git</text><text x="12.024" y="19.038" class="i">add</text><text x="16.032" y="19.038" class="i">&lt;file&gt;...&quot;</text><text x="27.054" y="19.038" class="i">to</text><text x="30.06" y="19.038" class="i">include</text><text x="38.076" y="19.038" class="i">in</text><text x="41.082" y="19.038" class="i">what</text><text x="46.092" y="19.038" class="i">will</text><text x="51.102" y="19.038" class="i">be</text><text x="54.108" y="19.038" class="i">committed)</text><text x="8.016" y="21.209" class="j">README.md</text><text y="25.551" class="i">no</text><text x="3.006" y="25.551" class="i">changes</text><text x="11.022" y="25.551" class="i">added</text><text x="17.034" y="25.551" class="i">to</text><text x="20.04" y="25.551" class="i">commit</text><text x="27.054" y="25.551" class="i">(use</text><text x="32.064" y="25.551" class="i">&quot;git</text><text x="37.074" y="25.551" class="i">add&quot;</text><text x="42.084" y="25.551" class="i">and/or</text><text x="49.098" y="25.551" class="i">&quot;git</text><text x="54.108" y="25.551" class="i">commit</text><text x="61.122" y="25.551" class="i">-a&quot;)</text><text y="27.722" class="h">[root@git-demo]</text><text x="16.032" y="27.722" class="h">/myProject:</text></svg></svg></g></svg></svg>